<?xml version="1.0" encoding="UTF-8" standalone="no"?>
<!-- Created with Inkscape (http://www.inkscape.org/) -->

<svg
   xmlns:dc="http://purl.org/dc/elements/1.1/"
   xmlns:cc="http://creativecommons.org/ns#"
   xmlns:rdf="http://www.w3.org/1999/02/22-rdf-syntax-ns#"
   xmlns:svg="http://www.w3.org/2000/svg"
   xmlns="http://www.w3.org/2000/svg"
   xmlns:xlink="http://www.w3.org/1999/xlink"
   xmlns:sodipodi="http://sodipodi.sourceforge.net/DTD/sodipodi-0.dtd"
   xmlns:inkscape="http://www.inkscape.org/namespaces/inkscape"
   width="744.09448819"
   height="1052.3622047"
   id="svg2"
   version="1.1"
   inkscape:version="0.48.4 r9939"
   sodipodi:docname="logo.svg"
   inkscape:export-filename="/home/joaolopes/rss-timestamp/img/logo.png"
   inkscape:export-xdpi="90"
   inkscape:export-ydpi="90">
  <defs
     id="defs4">
    <linearGradient
       id="linearGradient5530">
      <stop
         style="stop-color:#ffffff;stop-opacity:1;"
         offset="0"
         id="stop5532" />
      <stop
         id="stop5781"
         offset="0.1923077"
         style="stop-color:#f5f5f5;stop-opacity:1;" />
      <stop
         style="stop-color:#efefef;stop-opacity:1;"
         offset="1"
         id="stop5534" />
    </linearGradient>
    <linearGradient
       id="linearGradient5522">
      <stop
         style="stop-color:#ed965d;stop-opacity:1;"
         offset="0"
         id="stop5524" />
      <stop
         style="stop-color:#a74c11;stop-opacity:1;"
         offset="0.08974359"
         id="stop5827" />
      <stop
         id="stop5829"
         offset="0.90664035"
         style="stop-color:#d96316;stop-opacity:1;" />
      <stop
         style="stop-color:#77370c;stop-opacity:1;"
         offset="1"
         id="stop5526" />
    </linearGradient>
    <linearGradient
       id="linearGradient5484">
      <stop
         style="stop-color:#cc5d15;stop-opacity:1;"
         offset="0"
         id="stop5486" />
      <stop
         style="stop-color:#aa4d11;stop-opacity:1;"
         offset="1"
         id="stop5488" />
    </linearGradient>
    <linearGradient
       id="linearGradient5399">
      <stop
         style="stop-color:#f8bf8f;stop-opacity:1;"
         offset="0"
         id="stop5401" />
      <stop
         id="stop5783"
         offset="0.16666667"
         style="stop-color:#f28d38;stop-opacity:1;" />
      <stop
         style="stop-color:#f1852b;stop-opacity:1;"
         offset="0.97863245"
         id="stop5831" />
      <stop
         style="stop-color:#dd6c0e;stop-opacity:1;"
         offset="1"
         id="stop5403" />
    </linearGradient>
    <linearGradient
       id="RSSg"
       y2="225.94001"
       x2="225.94001"
       y1="30.06"
       x1="30.06"
       gradientUnits="userSpaceOnUse">
      <stop
         id="stop3837"
         stop-color="#E3702D"
         offset="0.0" />
      <stop
         id="stop3839"
         stop-color="#EA7D31"
         offset="0.1071" />
      <stop
         id="stop3841"
         stop-color="#F69537"
         offset="0.3503" />
      <stop
         id="stop3843"
         stop-color="#FB9E3A"
         offset="0.5" />
      <stop
         id="stop3845"
         stop-color="#EA7C31"
         offset="0.7016" />
      <stop
         id="stop3847"
         stop-color="#DE642B"
         offset="0.8866" />
      <stop
         id="stop3849"
         stop-color="#D95B29"
         offset="1.0" />
    </linearGradient>
    <linearGradient
       inkscape:collect="always"
       xlink:href="#RSSg"
       id="linearGradient3887"
       gradientUnits="userSpaceOnUse"
       x1="30.06"
       y1="30.06"
       x2="225.94001"
       y2="225.94001"
       gradientTransform="matrix(0.1953125,0,0,0.1953125,237.03005,244.43203)" />
    <linearGradient
       inkscape:collect="always"
       xlink:href="#RSSg"
       id="linearGradient3904"
       x1="272.86746"
       y1="283.88864"
       x2="277.60257"
       y2="283.88864"
       gradientUnits="userSpaceOnUse" />
    <linearGradient
       inkscape:collect="always"
       xlink:href="#RSSg"
       id="linearGradient3906"
       x1="270.41971"
       y1="283.16653"
       x2="286.26419"
       y2="283.16653"
       gradientUnits="userSpaceOnUse" />
    <linearGradient
       inkscape:collect="always"
       xlink:href="#RSSg"
       id="linearGradient3908"
       x1="253.97678"
       y1="328.5199"
       x2="281.47928"
       y2="328.5199"
       gradientUnits="userSpaceOnUse" />
    <linearGradient
       inkscape:collect="always"
       xlink:href="#RSSg"
       id="linearGradient3916"
       x1="308.38351"
       y1="258.92886"
       x2="311.2334"
       y2="258.92886"
       gradientUnits="userSpaceOnUse" />
    <linearGradient
       inkscape:collect="always"
       xlink:href="#RSSg"
       id="linearGradient3918"
       x1="309.38177"
       y1="265.86096"
       x2="315.32547"
       y2="265.86096"
       gradientUnits="userSpaceOnUse" />
    <linearGradient
       inkscape:collect="always"
       xlink:href="#RSSg"
       id="linearGradient3920"
       x1="331.46375"
       y1="243.94772"
       x2="356.02524"
       y2="243.94772"
       gradientUnits="userSpaceOnUse" />
    <linearGradient
       inkscape:collect="always"
       xlink:href="#RSSg"
       id="linearGradient3922"
       x1="-206.15601"
       y1="318.20923"
       x2="-194.61115"
       y2="318.20923"
       gradientUnits="userSpaceOnUse" />
    <linearGradient
       inkscape:collect="always"
       xlink:href="#RSSg"
       id="linearGradient3924"
       x1="261.875"
       y1="272.6947"
       x2="291.68643"
       y2="272.6947"
       gradientUnits="userSpaceOnUse" />
    <linearGradient
       inkscape:collect="always"
       xlink:href="#RSSg"
       id="linearGradient4925"
       gradientUnits="userSpaceOnUse"
       gradientTransform="matrix(0.1953125,0,0,0.1953125,237.3836,245.49269)"
       x1="30.06"
       y1="30.06"
       x2="225.94001"
       y2="225.94001" />
    <linearGradient
       inkscape:collect="always"
       xlink:href="#linearGradient5399"
       id="linearGradient5405"
       x1="277.65344"
       y1="250.74608"
       x2="277.65344"
       y2="289.19537"
       gradientUnits="userSpaceOnUse" />
    <linearGradient
       inkscape:collect="always"
       xlink:href="#linearGradient5522"
       id="linearGradient5528"
       x1="284.67889"
       y1="249.22803"
       x2="284.67889"
       y2="289.97525"
       gradientUnits="userSpaceOnUse" />
    <linearGradient
       inkscape:collect="always"
       xlink:href="#linearGradient5530"
       id="linearGradient5536"
       x1="278.25925"
       y1="250.94662"
       x2="278.25925"
       y2="288.33786"
       gradientUnits="userSpaceOnUse" />
    <linearGradient
       inkscape:collect="always"
       xlink:href="#linearGradient5530"
       id="linearGradient5538"
       gradientUnits="userSpaceOnUse"
       x1="278.25925"
       y1="250.94662"
       x2="278.25925"
       y2="288.33786" />
    <linearGradient
       inkscape:collect="always"
       xlink:href="#linearGradient5530"
       id="linearGradient5540"
       gradientUnits="userSpaceOnUse"
       x1="278.25925"
       y1="250.94662"
       x2="278.25925"
       y2="288.33786" />
    <linearGradient
       inkscape:collect="always"
       xlink:href="#linearGradient5530"
       id="linearGradient5542"
       gradientUnits="userSpaceOnUse"
       x1="278.25925"
       y1="250.94662"
       x2="278.25925"
       y2="288.33786" />
    <linearGradient
       inkscape:collect="always"
       xlink:href="#linearGradient5530"
       id="linearGradient5544"
       gradientUnits="userSpaceOnUse"
       x1="278.25925"
       y1="250.94662"
       x2="278.25925"
       y2="288.33786" />
    <linearGradient
       inkscape:collect="always"
       xlink:href="#linearGradient5530"
       id="linearGradient5546"
       gradientUnits="userSpaceOnUse"
       x1="278.25925"
       y1="250.94662"
       x2="278.25925"
       y2="288.33786" />
    <linearGradient
       inkscape:collect="always"
       xlink:href="#linearGradient5530"
       id="linearGradient5548"
       gradientUnits="userSpaceOnUse"
       x1="278.25925"
       y1="250.94662"
       x2="278.25925"
       y2="288.33786" />
    <linearGradient
       inkscape:collect="always"
       xlink:href="#linearGradient5530"
       id="linearGradient5550"
       gradientUnits="userSpaceOnUse"
       x1="278.25925"
       y1="250.94662"
       x2="278.25925"
       y2="288.33786" />
    <linearGradient
       inkscape:collect="always"
       xlink:href="#linearGradient5530"
       id="linearGradient5552"
       gradientUnits="userSpaceOnUse"
       x1="278.25925"
       y1="250.94662"
       x2="278.25925"
       y2="288.33786" />
    <linearGradient
       inkscape:collect="always"
       xlink:href="#linearGradient5530"
       id="linearGradient5554"
       gradientUnits="userSpaceOnUse"
       x1="278.25925"
       y1="250.94662"
       x2="278.25925"
       y2="288.33786" />
    <linearGradient
       inkscape:collect="always"
       xlink:href="#linearGradient5530"
       id="linearGradient5556"
       gradientUnits="userSpaceOnUse"
       x1="278.25925"
       y1="250.94662"
       x2="278.25925"
       y2="288.33786" />
    <linearGradient
       inkscape:collect="always"
       xlink:href="#linearGradient5530"
       id="linearGradient5558"
       gradientUnits="userSpaceOnUse"
       x1="278.25925"
       y1="250.94662"
       x2="278.25925"
       y2="288.33786" />
    <linearGradient
       inkscape:collect="always"
       xlink:href="#linearGradient5530"
       id="linearGradient5560"
       gradientUnits="userSpaceOnUse"
       x1="278.25925"
       y1="250.94662"
       x2="278.25925"
       y2="288.33786" />
    <linearGradient
       inkscape:collect="always"
       xlink:href="#linearGradient5530"
       id="linearGradient5562"
       gradientUnits="userSpaceOnUse"
       x1="278.25925"
       y1="250.94662"
       x2="278.25925"
       y2="288.33786" />
    <linearGradient
       inkscape:collect="always"
       xlink:href="#linearGradient5530"
       id="linearGradient5565"
       gradientUnits="userSpaceOnUse"
       x1="278.25925"
       y1="250.94662"
       x2="278.25925"
       y2="288.33786" />
    <linearGradient
       inkscape:collect="always"
       xlink:href="#linearGradient5530"
       id="linearGradient5568"
       gradientUnits="userSpaceOnUse"
       x1="278.25925"
       y1="250.94662"
       x2="278.25925"
       y2="288.33786" />
    <linearGradient
       inkscape:collect="always"
       xlink:href="#linearGradient5530"
       id="linearGradient5571"
       gradientUnits="userSpaceOnUse"
       x1="278.25925"
       y1="250.94662"
       x2="278.25925"
       y2="288.33786" />
    <linearGradient
       inkscape:collect="always"
       xlink:href="#linearGradient5530"
       id="linearGradient5574"
       gradientUnits="userSpaceOnUse"
       x1="278.25925"
       y1="250.94662"
       x2="278.25925"
       y2="288.33786" />
    <linearGradient
       inkscape:collect="always"
       xlink:href="#linearGradient5530"
       id="linearGradient5583"
       gradientUnits="userSpaceOnUse"
       x1="278.25925"
       y1="250.94662"
       x2="278.25925"
       y2="288.33786" />
    <linearGradient
       inkscape:collect="always"
       xlink:href="#linearGradient5530"
       id="linearGradient5586"
       gradientUnits="userSpaceOnUse"
       x1="278.25925"
       y1="250.94662"
       x2="278.25925"
       y2="288.33786" />
    <linearGradient
       inkscape:collect="always"
       xlink:href="#linearGradient5530"
       id="linearGradient5589"
       gradientUnits="userSpaceOnUse"
       x1="278.25925"
       y1="250.94662"
       x2="278.25925"
       y2="288.33786" />
    <linearGradient
       inkscape:collect="always"
       xlink:href="#linearGradient5530"
       id="linearGradient5612"
       x1="283.56256"
       y1="251.1234"
       x2="283.56256"
       y2="288.1236"
       gradientUnits="userSpaceOnUse" />
    <linearGradient
       inkscape:collect="always"
       xlink:href="#linearGradient5530"
       id="linearGradient5640"
       gradientUnits="userSpaceOnUse"
       x1="283.56256"
       y1="251.1234"
       x2="283.56256"
       y2="288.1236" />
    <linearGradient
       inkscape:collect="always"
       xlink:href="#linearGradient5530"
       id="linearGradient5642"
       gradientUnits="userSpaceOnUse"
       x1="283.56256"
       y1="251.1234"
       x2="283.56256"
       y2="288.1236" />
    <linearGradient
       inkscape:collect="always"
       xlink:href="#linearGradient5530"
       id="linearGradient5644"
       gradientUnits="userSpaceOnUse"
       x1="283.56256"
       y1="251.1234"
       x2="283.56256"
       y2="288.1236" />
    <linearGradient
       inkscape:collect="always"
       xlink:href="#linearGradient5530"
       id="linearGradient5648"
       gradientUnits="userSpaceOnUse"
       x1="283.56256"
       y1="251.1234"
       x2="283.56256"
       y2="288.1236" />
    <linearGradient
       inkscape:collect="always"
       xlink:href="#linearGradient5530"
       id="linearGradient5650"
       gradientUnits="userSpaceOnUse"
       x1="283.56256"
       y1="251.1234"
       x2="283.56256"
       y2="288.1236" />
    <linearGradient
       inkscape:collect="always"
       xlink:href="#linearGradient5530"
       id="linearGradient5652"
       gradientUnits="userSpaceOnUse"
       x1="283.56256"
       y1="251.1234"
       x2="283.56256"
       y2="288.1236" />
    <linearGradient
       inkscape:collect="always"
       xlink:href="#linearGradient5530"
       id="linearGradient5656"
       gradientUnits="userSpaceOnUse"
       x1="283.56256"
       y1="251.1234"
       x2="283.56256"
       y2="288.1236" />
    <linearGradient
       inkscape:collect="always"
       xlink:href="#linearGradient5530"
       id="linearGradient5658"
       gradientUnits="userSpaceOnUse"
       x1="283.56256"
       y1="251.1234"
       x2="283.56256"
       y2="288.1236" />
    <linearGradient
       inkscape:collect="always"
       xlink:href="#linearGradient5530"
       id="linearGradient5660"
       gradientUnits="userSpaceOnUse"
       x1="283.56256"
       y1="251.1234"
       x2="283.56256"
       y2="288.1236" />
    <linearGradient
       inkscape:collect="always"
       xlink:href="#linearGradient5530"
       id="linearGradient5662"
       gradientUnits="userSpaceOnUse"
       x1="283.56256"
       y1="251.1234"
       x2="283.56256"
       y2="288.1236" />
    <linearGradient
       inkscape:collect="always"
       xlink:href="#linearGradient5530"
       id="linearGradient5664"
       gradientUnits="userSpaceOnUse"
       x1="283.56256"
       y1="251.1234"
       x2="283.56256"
       y2="288.1236" />
    <linearGradient
       inkscape:collect="always"
       xlink:href="#linearGradient5530"
       id="linearGradient5693"
       gradientUnits="userSpaceOnUse"
       x1="283.56256"
       y1="251.1234"
       x2="283.56256"
       y2="288.1236" />
    <linearGradient
       inkscape:collect="always"
       xlink:href="#linearGradient5530"
       id="linearGradient5695"
       gradientUnits="userSpaceOnUse"
       x1="283.56256"
       y1="251.1234"
       x2="283.56256"
       y2="288.1236" />
    <linearGradient
       gradientTransform="matrix(4.9861813,0,0,4.9861813,-1010.8217,-1018.4435)"
       inkscape:collect="always"
       xlink:href="#linearGradient5530-7"
       id="linearGradient5779-4"
       x1="276.84494"
       y1="250.68146"
       x2="276.93332"
       y2="288.43057"
       gradientUnits="userSpaceOnUse" />
    <linearGradient
       id="linearGradient5530-7">
      <stop
         style="stop-color:#ffffff;stop-opacity:1;"
         offset="0"
         id="stop5532-4" />
      <stop
         id="stop5781-9"
         offset="0.1923077"
         style="stop-color:#f5f5f5;stop-opacity:1;" />
      <stop
         style="stop-color:#efefef;stop-opacity:1;"
         offset="1"
         id="stop5534-9" />
    </linearGradient>
    <linearGradient
       inkscape:collect="always"
       xlink:href="#linearGradient5530-7"
       id="linearGradient5910"
       x1="276.84494"
       y1="250.68146"
       x2="276.93332"
       y2="288.43057"
       gradientUnits="userSpaceOnUse" />
    <linearGradient
       id="linearGradient5912">
      <stop
         style="stop-color:#ffffff;stop-opacity:1;"
         offset="0"
         id="stop5914" />
      <stop
         id="stop5916"
         offset="0.1923077"
         style="stop-color:#f5f5f5;stop-opacity:1;" />
      <stop
         style="stop-color:#efefef;stop-opacity:1;"
         offset="1"
         id="stop5918" />
    </linearGradient>
    <linearGradient
       inkscape:collect="always"
       xlink:href="#linearGradient5399-2"
       id="linearGradient5405-6"
       x1="277.65344"
       y1="250.74608"
       x2="277.65344"
       y2="289.19537"
       gradientUnits="userSpaceOnUse" />
    <linearGradient
       id="linearGradient5399-2">
      <stop
         style="stop-color:#f8bf8f;stop-opacity:1;"
         offset="0"
         id="stop5401-2" />
      <stop
         id="stop5783-9"
         offset="0.16666667"
         style="stop-color:#f28d38;stop-opacity:1;" />
      <stop
         style="stop-color:#f1852b;stop-opacity:1;"
         offset="0.97863245"
         id="stop5831-4" />
      <stop
         style="stop-color:#dd6c0e;stop-opacity:1;"
         offset="1"
         id="stop5403-5" />
    </linearGradient>
    <linearGradient
       inkscape:collect="always"
       xlink:href="#linearGradient5399-2"
       id="linearGradient5928"
       x1="277.65344"
       y1="250.74608"
       x2="277.65344"
       y2="289.19537"
       gradientUnits="userSpaceOnUse" />
    <linearGradient
       id="linearGradient5930">
      <stop
         style="stop-color:#f8bf8f;stop-opacity:1;"
         offset="0"
         id="stop5932" />
      <stop
         id="stop5934"
         offset="0.16666667"
         style="stop-color:#f28d38;stop-opacity:1;" />
      <stop
         style="stop-color:#f1852b;stop-opacity:1;"
         offset="0.97863245"
         id="stop5936" />
      <stop
         style="stop-color:#dd6c0e;stop-opacity:1;"
         offset="1"
         id="stop5938" />
    </linearGradient>
    <linearGradient
       inkscape:collect="always"
       xlink:href="#linearGradient5399-2"
       id="linearGradient5940"
       x1="277.65344"
       y1="250.74608"
       x2="277.65344"
       y2="289.19537"
       gradientUnits="userSpaceOnUse" />
    <linearGradient
       id="linearGradient5942">
      <stop
         style="stop-color:#f8bf8f;stop-opacity:1;"
         offset="0"
         id="stop5944" />
      <stop
         id="stop5946"
         offset="0.16666667"
         style="stop-color:#f28d38;stop-opacity:1;" />
      <stop
         style="stop-color:#f1852b;stop-opacity:1;"
         offset="0.97863245"
         id="stop5948" />
      <stop
         style="stop-color:#dd6c0e;stop-opacity:1;"
         offset="1"
         id="stop5950" />
    </linearGradient>
    <linearGradient
       inkscape:collect="always"
       xlink:href="#linearGradient5399-2"
       id="linearGradient5952"
       x1="277.65344"
       y1="250.74608"
       x2="277.65344"
       y2="289.19537"
       gradientUnits="userSpaceOnUse" />
    <linearGradient
       id="linearGradient5954">
      <stop
         style="stop-color:#f8bf8f;stop-opacity:1;"
         offset="0"
         id="stop5956" />
      <stop
         id="stop5958"
         offset="0.16666667"
         style="stop-color:#f28d38;stop-opacity:1;" />
      <stop
         style="stop-color:#f1852b;stop-opacity:1;"
         offset="0.97863245"
         id="stop5960" />
      <stop
         style="stop-color:#dd6c0e;stop-opacity:1;"
         offset="1"
         id="stop5962" />
    </linearGradient>
    <linearGradient
       inkscape:collect="always"
       xlink:href="#linearGradient5399-2"
       id="linearGradient5964"
       x1="277.65344"
       y1="250.74608"
       x2="277.65344"
       y2="289.19537"
       gradientUnits="userSpaceOnUse" />
    <linearGradient
       id="linearGradient5966">
      <stop
         style="stop-color:#f8bf8f;stop-opacity:1;"
         offset="0"
         id="stop5968" />
      <stop
         id="stop5970"
         offset="0.16666667"
         style="stop-color:#f28d38;stop-opacity:1;" />
      <stop
         style="stop-color:#f1852b;stop-opacity:1;"
         offset="0.97863245"
         id="stop5972" />
      <stop
         style="stop-color:#dd6c0e;stop-opacity:1;"
         offset="1"
         id="stop5974" />
    </linearGradient>
    <linearGradient
       inkscape:collect="always"
       xlink:href="#linearGradient5399-2"
       id="linearGradient5976"
       x1="277.65344"
       y1="250.74608"
       x2="277.65344"
       y2="289.19537"
       gradientUnits="userSpaceOnUse" />
    <linearGradient
       id="linearGradient5978">
      <stop
         style="stop-color:#f8bf8f;stop-opacity:1;"
         offset="0"
         id="stop5980" />
      <stop
         id="stop5982"
         offset="0.16666667"
         style="stop-color:#f28d38;stop-opacity:1;" />
      <stop
         style="stop-color:#f1852b;stop-opacity:1;"
         offset="0.97863245"
         id="stop5984" />
      <stop
         style="stop-color:#dd6c0e;stop-opacity:1;"
         offset="1"
         id="stop5986" />
    </linearGradient>
    <linearGradient
       inkscape:collect="always"
       xlink:href="#linearGradient5399-2"
       id="linearGradient5988"
       x1="277.65344"
       y1="250.74608"
       x2="277.65344"
       y2="289.19537"
       gradientUnits="userSpaceOnUse" />
    <linearGradient
       id="linearGradient5990">
      <stop
         style="stop-color:#f8bf8f;stop-opacity:1;"
         offset="0"
         id="stop5992" />
      <stop
         id="stop5994"
         offset="0.16666667"
         style="stop-color:#f28d38;stop-opacity:1;" />
      <stop
         style="stop-color:#f1852b;stop-opacity:1;"
         offset="0.97863245"
         id="stop5996" />
      <stop
         style="stop-color:#dd6c0e;stop-opacity:1;"
         offset="1"
         id="stop5998" />
    </linearGradient>
    <linearGradient
       inkscape:collect="always"
       xlink:href="#linearGradient5399-2"
       id="linearGradient6000"
       x1="277.65344"
       y1="250.74608"
       x2="277.65344"
       y2="289.19537"
       gradientUnits="userSpaceOnUse" />
    <linearGradient
       id="linearGradient6002">
      <stop
         style="stop-color:#f8bf8f;stop-opacity:1;"
         offset="0"
         id="stop6004" />
      <stop
         id="stop6006"
         offset="0.16666667"
         style="stop-color:#f28d38;stop-opacity:1;" />
      <stop
         style="stop-color:#f1852b;stop-opacity:1;"
         offset="0.97863245"
         id="stop6008" />
      <stop
         style="stop-color:#dd6c0e;stop-opacity:1;"
         offset="1"
         id="stop6010" />
    </linearGradient>
    <linearGradient
       inkscape:collect="always"
       xlink:href="#linearGradient5399-2"
       id="linearGradient6012"
       x1="277.65344"
       y1="250.74608"
       x2="277.65344"
       y2="289.19537"
       gradientUnits="userSpaceOnUse" />
    <linearGradient
       id="linearGradient6014">
      <stop
         style="stop-color:#f8bf8f;stop-opacity:1;"
         offset="0"
         id="stop6016" />
      <stop
         id="stop6018"
         offset="0.16666667"
         style="stop-color:#f28d38;stop-opacity:1;" />
      <stop
         style="stop-color:#f1852b;stop-opacity:1;"
         offset="0.97863245"
         id="stop6020" />
      <stop
         style="stop-color:#dd6c0e;stop-opacity:1;"
         offset="1"
         id="stop6022" />
    </linearGradient>
    <linearGradient
       inkscape:collect="always"
       xlink:href="#linearGradient5399-2"
       id="linearGradient6024"
       x1="277.65344"
       y1="250.74608"
       x2="277.65344"
       y2="289.19537"
       gradientUnits="userSpaceOnUse" />
    <linearGradient
       id="linearGradient6026">
      <stop
         style="stop-color:#f8bf8f;stop-opacity:1;"
         offset="0"
         id="stop6028" />
      <stop
         id="stop6030"
         offset="0.16666667"
         style="stop-color:#f28d38;stop-opacity:1;" />
      <stop
         style="stop-color:#f1852b;stop-opacity:1;"
         offset="0.97863245"
         id="stop6032" />
      <stop
         style="stop-color:#dd6c0e;stop-opacity:1;"
         offset="1"
         id="stop6034" />
    </linearGradient>
    <linearGradient
       inkscape:collect="always"
       xlink:href="#linearGradient5399-2"
       id="linearGradient6036"
       x1="277.65344"
       y1="250.74608"
       x2="277.65344"
       y2="289.19537"
       gradientUnits="userSpaceOnUse" />
    <linearGradient
       id="linearGradient6038">
      <stop
         style="stop-color:#f8bf8f;stop-opacity:1;"
         offset="0"
         id="stop6040" />
      <stop
         id="stop6042"
         offset="0.16666667"
         style="stop-color:#f28d38;stop-opacity:1;" />
      <stop
         style="stop-color:#f1852b;stop-opacity:1;"
         offset="0.97863245"
         id="stop6044" />
      <stop
         style="stop-color:#dd6c0e;stop-opacity:1;"
         offset="1"
         id="stop6046" />
    </linearGradient>
    <linearGradient
       inkscape:collect="always"
       xlink:href="#linearGradient5522-0"
       id="linearGradient5528-9"
       x1="284.67889"
       y1="249.22803"
       x2="284.67889"
       y2="289.97525"
       gradientUnits="userSpaceOnUse" />
    <linearGradient
       id="linearGradient5522-0">
      <stop
         style="stop-color:#ed965d;stop-opacity:1;"
         offset="0"
         id="stop5524-4" />
      <stop
         style="stop-color:#a74c11;stop-opacity:1;"
         offset="0.08974359"
         id="stop5827-8" />
      <stop
         id="stop5829-0"
         offset="0.90664035"
         style="stop-color:#91420f;stop-opacity:1;" />
      <stop
         style="stop-color:#77370c;stop-opacity:1;"
         offset="1"
         id="stop5526-3" />
    </linearGradient>
    <linearGradient
       inkscape:collect="always"
       xlink:href="#linearGradient5522-0"
       id="linearGradient5805-2"
       gradientUnits="userSpaceOnUse"
       x1="284.67889"
       y1="249.22803"
       x2="284.67889"
       y2="289.97525" />
    <linearGradient
       id="linearGradient6055">
      <stop
         style="stop-color:#ed965d;stop-opacity:1;"
         offset="0"
         id="stop6057" />
      <stop
         style="stop-color:#a74c11;stop-opacity:1;"
         offset="0.08974359"
         id="stop6059" />
      <stop
         id="stop6061"
         offset="0.90664035"
         style="stop-color:#d96316;stop-opacity:1;" />
      <stop
         style="stop-color:#77370c;stop-opacity:1;"
         offset="1"
         id="stop6063" />
    </linearGradient>
    <linearGradient
       inkscape:collect="always"
       xlink:href="#linearGradient5522-0"
       id="linearGradient5807-5"
       gradientUnits="userSpaceOnUse"
       x1="284.67889"
       y1="249.22803"
       x2="284.67889"
       y2="289.97525" />
    <linearGradient
       id="linearGradient6066">
      <stop
         style="stop-color:#ed965d;stop-opacity:1;"
         offset="0"
         id="stop6068" />
      <stop
         style="stop-color:#a74c11;stop-opacity:1;"
         offset="0.08974359"
         id="stop6070" />
      <stop
         id="stop6072"
         offset="0.90664035"
         style="stop-color:#d96316;stop-opacity:1;" />
      <stop
         style="stop-color:#77370c;stop-opacity:1;"
         offset="1"
         id="stop6074" />
    </linearGradient>
    <linearGradient
       inkscape:collect="always"
       xlink:href="#linearGradient5522-0"
       id="linearGradient5809-3"
       gradientUnits="userSpaceOnUse"
       x1="284.67889"
       y1="249.22803"
       x2="284.67889"
       y2="289.97525" />
    <linearGradient
       id="linearGradient6077">
      <stop
         style="stop-color:#ed965d;stop-opacity:1;"
         offset="0"
         id="stop6079" />
      <stop
         style="stop-color:#a74c11;stop-opacity:1;"
         offset="0.08974359"
         id="stop6081" />
      <stop
         id="stop6083"
         offset="0.90664035"
         style="stop-color:#d96316;stop-opacity:1;" />
      <stop
         style="stop-color:#77370c;stop-opacity:1;"
         offset="1"
         id="stop6085" />
    </linearGradient>
    <linearGradient
       inkscape:collect="always"
       xlink:href="#linearGradient5522-0"
       id="linearGradient5811-5"
       gradientUnits="userSpaceOnUse"
       x1="284.67889"
       y1="249.22803"
       x2="284.67889"
       y2="289.97525" />
    <linearGradient
       id="linearGradient6088">
      <stop
         style="stop-color:#ed965d;stop-opacity:1;"
         offset="0"
         id="stop6090" />
      <stop
         style="stop-color:#a74c11;stop-opacity:1;"
         offset="0.08974359"
         id="stop6092" />
      <stop
         id="stop6094"
         offset="0.90664035"
         style="stop-color:#d96316;stop-opacity:1;" />
      <stop
         style="stop-color:#77370c;stop-opacity:1;"
         offset="1"
         id="stop6096" />
    </linearGradient>
    <linearGradient
       inkscape:collect="always"
       xlink:href="#linearGradient5522-0"
       id="linearGradient5813-2"
       gradientUnits="userSpaceOnUse"
       x1="284.67889"
       y1="249.22803"
       x2="284.67889"
       y2="289.97525" />
    <linearGradient
       id="linearGradient6099">
      <stop
         style="stop-color:#ed965d;stop-opacity:1;"
         offset="0"
         id="stop6101" />
      <stop
         style="stop-color:#a74c11;stop-opacity:1;"
         offset="0.08974359"
         id="stop6103" />
      <stop
         id="stop6105"
         offset="0.90664035"
         style="stop-color:#d96316;stop-opacity:1;" />
      <stop
         style="stop-color:#77370c;stop-opacity:1;"
         offset="1"
         id="stop6107" />
    </linearGradient>
    <linearGradient
       inkscape:collect="always"
       xlink:href="#linearGradient5522-0"
       id="linearGradient5815-1"
       gradientUnits="userSpaceOnUse"
       x1="284.67889"
       y1="249.22803"
       x2="284.67889"
       y2="289.97525" />
    <linearGradient
       id="linearGradient6110">
      <stop
         style="stop-color:#ed965d;stop-opacity:1;"
         offset="0"
         id="stop6112" />
      <stop
         style="stop-color:#a74c11;stop-opacity:1;"
         offset="0.08974359"
         id="stop6114" />
      <stop
         id="stop6116"
         offset="0.90664035"
         style="stop-color:#d96316;stop-opacity:1;" />
      <stop
         style="stop-color:#77370c;stop-opacity:1;"
         offset="1"
         id="stop6118" />
    </linearGradient>
    <linearGradient
       inkscape:collect="always"
       xlink:href="#linearGradient5522-0"
       id="linearGradient5817-5"
       gradientUnits="userSpaceOnUse"
       x1="284.67889"
       y1="249.22803"
       x2="284.67889"
       y2="289.97525" />
    <linearGradient
       id="linearGradient6121">
      <stop
         style="stop-color:#ed965d;stop-opacity:1;"
         offset="0"
         id="stop6123" />
      <stop
         style="stop-color:#a74c11;stop-opacity:1;"
         offset="0.08974359"
         id="stop6125" />
      <stop
         id="stop6127"
         offset="0.90664035"
         style="stop-color:#d96316;stop-opacity:1;" />
      <stop
         style="stop-color:#77370c;stop-opacity:1;"
         offset="1"
         id="stop6129" />
    </linearGradient>
    <linearGradient
       inkscape:collect="always"
       xlink:href="#linearGradient5522-0"
       id="linearGradient5819-1"
       gradientUnits="userSpaceOnUse"
       x1="284.67889"
       y1="249.22803"
       x2="284.67889"
       y2="289.97525" />
    <linearGradient
       id="linearGradient6132">
      <stop
         style="stop-color:#ed965d;stop-opacity:1;"
         offset="0"
         id="stop6134" />
      <stop
         style="stop-color:#a74c11;stop-opacity:1;"
         offset="0.08974359"
         id="stop6136" />
      <stop
         id="stop6138"
         offset="0.90664035"
         style="stop-color:#d96316;stop-opacity:1;" />
      <stop
         style="stop-color:#77370c;stop-opacity:1;"
         offset="1"
         id="stop6140" />
    </linearGradient>
    <linearGradient
       inkscape:collect="always"
       xlink:href="#linearGradient5522-0"
       id="linearGradient5821-5"
       gradientUnits="userSpaceOnUse"
       x1="284.67889"
       y1="249.22803"
       x2="284.67889"
       y2="289.97525" />
    <linearGradient
       id="linearGradient6143">
      <stop
         style="stop-color:#ed965d;stop-opacity:1;"
         offset="0"
         id="stop6145" />
      <stop
         style="stop-color:#a74c11;stop-opacity:1;"
         offset="0.08974359"
         id="stop6147" />
      <stop
         id="stop6149"
         offset="0.90664035"
         style="stop-color:#d96316;stop-opacity:1;" />
      <stop
         style="stop-color:#77370c;stop-opacity:1;"
         offset="1"
         id="stop6151" />
    </linearGradient>
    <linearGradient
       inkscape:collect="always"
       xlink:href="#linearGradient5522-0"
       id="linearGradient5823-0"
       gradientUnits="userSpaceOnUse"
       x1="284.67889"
       y1="249.22803"
       x2="284.67889"
       y2="289.97525" />
    <linearGradient
       id="linearGradient6154">
      <stop
         style="stop-color:#ed965d;stop-opacity:1;"
         offset="0"
         id="stop6156" />
      <stop
         style="stop-color:#a74c11;stop-opacity:1;"
         offset="0.08974359"
         id="stop6158" />
      <stop
         id="stop6160"
         offset="0.90664035"
         style="stop-color:#d96316;stop-opacity:1;" />
      <stop
         style="stop-color:#77370c;stop-opacity:1;"
         offset="1"
         id="stop6162" />
    </linearGradient>
    <linearGradient
       y2="289.97525"
       x2="284.67889"
       y1="249.22803"
       x1="284.67889"
       gradientUnits="userSpaceOnUse"
       id="linearGradient6188"
       xlink:href="#linearGradient5522-0"
       inkscape:collect="always" />
    <linearGradient
       y2="289.19537"
       x2="277.65344"
       y1="250.74608"
       x1="277.65344"
       gradientUnits="userSpaceOnUse"
       id="linearGradient6190"
       xlink:href="#linearGradient5399-2"
       inkscape:collect="always" />
    <linearGradient
       y2="289.19537"
       x2="277.65344"
       y1="250.74608"
       x1="277.65344"
       gradientUnits="userSpaceOnUse"
       id="linearGradient6192"
       xlink:href="#linearGradient5399-2"
       inkscape:collect="always" />
    <linearGradient
       y2="289.19537"
       x2="277.65344"
       y1="250.74608"
       x1="277.65344"
       gradientUnits="userSpaceOnUse"
       id="linearGradient6194"
       xlink:href="#linearGradient5399-2"
       inkscape:collect="always" />
    <linearGradient
       y2="289.19537"
       x2="277.65344"
       y1="250.74608"
       x1="277.65344"
       gradientUnits="userSpaceOnUse"
       id="linearGradient6196"
       xlink:href="#linearGradient5399-2"
       inkscape:collect="always" />
    <linearGradient
       y2="289.19537"
       x2="277.65344"
       y1="250.74608"
       x1="277.65344"
       gradientUnits="userSpaceOnUse"
       id="linearGradient6198"
       xlink:href="#linearGradient5399-2"
       inkscape:collect="always" />
    <linearGradient
       y2="289.19537"
       x2="277.65344"
       y1="250.74608"
       x1="277.65344"
       gradientUnits="userSpaceOnUse"
       id="linearGradient6200"
       xlink:href="#linearGradient5399-2"
       inkscape:collect="always" />
    <linearGradient
       y2="289.19537"
       x2="277.65344"
       y1="250.74608"
       x1="277.65344"
       gradientUnits="userSpaceOnUse"
       id="linearGradient6202"
       xlink:href="#linearGradient5399-2"
       inkscape:collect="always" />
    <linearGradient
       y2="289.19537"
       x2="277.65344"
       y1="250.74608"
       x1="277.65344"
       gradientUnits="userSpaceOnUse"
       id="linearGradient6204"
       xlink:href="#linearGradient5399-2"
       inkscape:collect="always" />
    <linearGradient
       y2="289.19537"
       x2="277.65344"
       y1="250.74608"
       x1="277.65344"
       gradientUnits="userSpaceOnUse"
       id="linearGradient6206"
       xlink:href="#linearGradient5399-2"
       inkscape:collect="always" />
    <linearGradient
       y2="289.19537"
       x2="277.65344"
       y1="250.74608"
       x1="277.65344"
       gradientUnits="userSpaceOnUse"
       id="linearGradient6208"
       xlink:href="#linearGradient5399-2"
       inkscape:collect="always" />
    <linearGradient
       gradientTransform="translate(-40.435673,-24.888057)"
       y2="288.43057"
       x2="276.93332"
       y1="250.68146"
       x1="276.84494"
       gradientUnits="userSpaceOnUse"
       id="linearGradient6210"
       xlink:href="#linearGradient5530-7"
       inkscape:collect="always" />
    <filter
       inkscape:collect="always"
       id="filter6675">
      <feGaussianBlur
         inkscape:collect="always"
         stdDeviation="3.7403571"
         id="feGaussianBlur6677" />
    </filter>
    <filter
       inkscape:collect="always"
       id="filter6683">
      <feGaussianBlur
         inkscape:collect="always"
         stdDeviation="0.7587177"
         id="feGaussianBlur6685" />
    </filter>
  </defs>
  <sodipodi:namedview
     id="base"
     pagecolor="#ffffff"
     bordercolor="#666666"
     borderopacity="1.0"
     inkscape:pageopacity="0.0"
     inkscape:pageshadow="2"
     inkscape:zoom="1.4142136"
     inkscape:cx="237.42967"
     inkscape:cy="712.49488"
     inkscape:document-units="px"
     inkscape:current-layer="layer1"
     showgrid="false"
     inkscape:window-width="1309"
     inkscape:window-height="744"
     inkscape:window-x="57"
     inkscape:window-y="24"
     inkscape:window-maximized="1" />
  <metadata
     id="metadata7">
    <rdf:RDF>
      <cc:Work
         rdf:about="">
        <dc:format>image/svg+xml</dc:format>
        <dc:type
           rdf:resource="http://purl.org/dc/dcmitype/StillImage" />
        <dc:title />
      </cc:Work>
    </rdf:RDF>
  </metadata>
  <g
     inkscape:label="Layer 1"
     inkscape:groupmode="layer"
     id="layer1">
    <path
       id="path6577"
       style="font-size:18.29882050000000149px;font-style:normal;font-variant:normal;font-weight:bold;font-stretch:normal;line-height:125%;letter-spacing:-0.05775131000000000px;word-spacing:0px;fill:#000000;fill-opacity:1;stroke:#000000;stroke-width:15;stroke-miterlimit:4;stroke-opacity:1;stroke-dasharray:none;filter:url(#filter6675);font-family:Impact;-inkscape-font-specification:Impact Bold;opacity:0.35344828"
       d="m 524.52598,380.33879 -20.12014,0 0,-4.62857 c 0,-2.15996 -0.25729,-3.5357 -0.77181,-4.12716 -0.51488,-0.59136 -1.37225,-0.88714 -2.57292,-0.88719 -1.30364,5e-5 -2.29848,0.39839 -2.98458,1.19578 -0.65184,0.79714 -0.97774,2.00574 -0.97769,3.6257 -5e-5,2.08293 0.37745,3.65153 1.13206,4.70576 0.7204,1.05433 2.76155,2.3272 6.12353,3.81862 9.63973,4.29435 15.71181,7.81723 18.21612,10.56861 2.50426,2.75152 3.75639,7.18723 3.75644,13.30732 -5e-5,4.44857 -0.70331,7.72718 -2.10976,9.83579 -1.37229,2.10856 -4.04808,3.88289 -8.0275,5.3229 -3.97947,1.41428 -8.61064,2.12147 -13.89365,2.12147 -5.79763,0 -10.75474,-0.82292 -14.87138,-2.46861 -4.08234,-1.64574 -6.75817,-3.74148 -8.0274,-6.28722 -1.26934,-2.54575 -1.90398,-6.15864 -1.90398,-10.83867 l 0,-4.08862 20.12009,0 0,7.59865 c -5e-5,2.34006 0.27424,3.84434 0.82337,4.51289 0.58313,0.6686 1.59513,1.00292 3.03599,1.00287 1.4408,5e-5 2.50426,-0.42432 3.1904,-1.27287 0.72036,-0.84855 1.08061,-2.10856 1.08061,-3.78003 0,-3.67711 -0.669,-6.08144 -2.00684,-7.21291 -1.37225,-1.13141 -4.75133,-3.02142 -10.13725,-5.67003 -5.38598,-2.67429 -8.95374,-4.61576 -10.70324,-5.82436 -1.7496,-1.20855 -3.20756,-2.87997 -4.37398,-5.0143 -1.13206,-2.13429 -1.69809,-4.86004 -1.69809,-8.17724 0,-4.78285 0.80616,-8.28001 2.41849,-10.49153 1.64669,-2.21137 4.28817,-3.93424 7.92459,-5.16862 3.63632,-1.25996 8.02741,-1.88996 13.17324,-1.89001 5.62606,5e-5 10.41165,0.68151 14.35677,2.04428 3.97937,1.36297 6.60369,3.0858 7.87308,5.16868 1.30353,2.05719 1.95538,5.56722 1.95543,10.53006 l 0,2.46856 m -54.21291,0 -20.12009,0 0,-4.62857 c -5e-5,-2.15996 -0.25728,-3.5357 -0.77186,-4.12716 -0.51487,-0.59136 -1.37224,-0.88714 -2.57292,-0.88719 -1.30358,5e-5 -2.29848,0.39839 -2.98453,1.19578 -0.65189,0.79714 -0.97774,2.00574 -0.97774,3.6257 0,2.08293 0.37746,3.65153 1.13212,4.70576 0.7204,1.05433 2.76154,2.3272 6.12348,3.81862 9.63973,4.29435 15.7118,7.81723 18.21611,10.56861 2.50426,2.75152 3.75644,7.18723 3.75644,13.30732 0,4.44857 -0.7033,7.72718 -2.10975,9.83579 -1.37225,2.10856 -4.04808,3.88289 -8.0275,5.3229 -3.97943,1.41428 -8.61064,2.12147 -13.89365,2.12147 -5.79758,0 -10.75474,-0.82292 -14.87134,-2.46861 -4.08238,-1.64574 -6.75812,-3.74148 -8.02745,-6.28722 -1.26933,-2.54575 -1.90392,-6.15864 -1.90392,-10.83867 l 0,-4.08862 20.12004,0 0,7.59865 c 0,2.34006 0.27424,3.84434 0.82337,4.51289 0.58313,0.6686 1.59513,1.00292 3.03598,1.00287 1.44081,5e-5 2.50426,-0.42432 3.19041,-1.27287 0.7204,-0.84855 1.08061,-2.10856 1.08066,-3.78003 -5e-5,-3.67711 -0.669,-6.08144 -2.00689,-7.21291 -1.37225,-1.13141 -4.75134,-3.02142 -10.13726,-5.67003 -5.38592,-2.67429 -8.95363,-4.61576 -10.70324,-5.82436 -1.7496,-1.20855 -3.20756,-2.87997 -4.37392,-5.0143 -1.13207,-2.13429 -1.69815,-4.86004 -1.69815,-8.17724 0,-4.78285 0.80617,-8.28001 2.41855,-10.49153 1.64664,-2.21137 4.28817,-3.93424 7.92454,-5.16862 3.63632,-1.25996 8.0274,-1.88996 13.17324,-1.89001 5.62606,5e-5 10.41164,0.68151 14.35676,2.04428 3.97937,1.36297 6.60375,3.0858 7.87308,5.16868 1.30359,2.05719 1.95538,5.56722 1.95543,10.53006 l 0,2.46856 m -102.37757,-18.90012 15.33445,0 c 10.22302,5e-5 17.13551,0.29568 20.73758,0.88714 3.63632,0.59151 6.5866,2.10866 8.85077,4.55149 2.29843,2.4172 3.44765,6.28722 3.4477,11.61012 -5e-5,4.86003 -0.80622,8.12578 -2.4185,9.7972 -1.61238,1.67147 -4.78564,2.67434 -9.51977,3.00861 4.28812,0.79714 7.16978,1.86429 8.64494,3.20143 1.47512,1.33719 2.3842,2.57147 2.7273,3.70289 0.37745,1.10578 0.56613,4.17867 0.56613,9.21865 l 0,16.47015 -20.12004,0 0,-20.75163 c -5e-5,-3.34284 -0.36,-5.4129 -1.08066,-6.21004 -0.6861,-0.79715 -2.52141,-1.19569 -5.50599,-1.19569 l 0,28.15736 -21.66381,0 z m 21.66391,10.68439 0,13.88582 c 2.43565,0 4.13375,-0.24433 5.09433,-0.73287 0.99485,-0.51423 1.49227,-2.1471 1.49232,-4.89863 l 0,-3.43283 c -5e-5,-1.98001 -0.48017,-3.27857 -1.44086,-3.8958 -0.92628,-0.61709 -2.64153,-0.92564 -5.14579,-0.92569 m 67.09845,-105.13258 c -1.85262,6.26628 -6.88024,8.48428 -10.95958,6.70621 -4.07935,-1.77812 -4.12103,-11.2046 2.20539,-10.98531 6.32641,0.2194 5.55944,-5.94652 5.55944,-5.94652 0,0 5.04736,3.95928 3.19475,10.22562 z m 15.80255,48.52681 c -3.88513,7.65638 -8.90268,8.46539 -13.54307,8.46539 -2.30865,0 -4.64044,-1.30708 -6.99531,-3.92134 -3.23214,-3.50079 -5.46002,-8.89973 -6.68358,-16.19686 -1.13126,-6.70601 -1.69689,-15.24211 -1.69689,-25.60813 1.96236,0 10.44131,0 10.68723,0 -0.0693,13.59408 -0.41186,15.03498 1.20242,21.5409 1.14567,4.61646 3.80794,10.5912 6.40051,9.84457 2.89238,-0.83294 4.0581,-3.45527 6.05407,-10.95753 l 8.26041,7.21131 c 0,0 0.19894,1.96531 -3.68579,9.62169 z m -78.31625,-27.92017 c 3.31521,-1.64674 6.3133,-2.98314 6.3133,-2.98314 0.44527,-7.18813 0.5601,-42.00399 0.14609,-47.84924 l 10.83333,-0.57196 c 0.0449,6.82703 1.16717,38.89854 0.83593,43.86363 1.92003,-0.53581 8.78366,-3.31601 13.56526,-2.18968 4.78165,1.12633 9.35024,2.48526 11.69329,14.15153 2.34316,11.66622 1.06201,23.11469 0.44078,30.7455 l -13.84717,-1.66758 c 0.27374,-5.94154 3.13087,-15.518 1.36417,-24.20652 -1.76671,-8.68852 -4.32272,-8.00616 -9.36495,-7.01216 -1.69031,0.33307 -1.19254,0.35252 -4.21208,1.18247 -0.21141,4.09066 -0.90319,6.40784 -2.11075,13.36481 -2.08891,12.14798 -4.73113,22.45387 -7.92668,30.91771 l -12.31352,-2.81155 c 5.40791,-13.85172 10.11656,-38.23304 10.12025,-37.99112 0,0 -1.14747,0.50815 -3.33251,1.62809 z m -9.22603,-6.24091 c -16.84826,0.76877 -29.03444,2.62089 -36.55859,5.55635 -5.16179,2.01392 -8.75229,5.26022 -10.77139,9.73876 -2.49918,5.4863 -2.33344,11.7467 0.49712,18.7813 3.56596,8.86144 9.69927,14.51293 18.4001,16.95442 7.80343,2.16071 17.27229,1.60535 28.40648,-1.66609 l 0.33756,-13.02425 c -18.46113,3.03269 -29.08015,3.44949 -33.18892,-3.10156 -4.96948,-8.95952 -3.97413,-16.49897 5.44057,-18.73502 9.41466,-2.23611 12.4666,-3.17007 27.70786,-4.13973 l -0.27124,-10.36418 m -94.19435,129.18877 c -0.85788,3.6968 -3.73864,6.36571 -6.43437,5.96113 -2.69573,-0.40438 -4.1856,-3.72942 -3.32768,-7.42627 0.85792,-3.69681 3.73869,-6.36571 6.43442,-5.96108 2.69573,0.40438 4.1856,3.72931 3.32763,7.42622 z m 11.91109,-46.7108 c 19.61848,5.63494 22.857,28.58269 16.22269,59.49542 l -8.95588,0.14559 c 5.41584,-27.69928 1.29865,-45.34802 -10.84425,-49.16728 -12.1429,-3.81927 -20.96076,3.21319 -30.11025,12.92797 l -6.79123,-6.8558 c 9.19621,-11.88571 23.38165,-20.87724 40.47892,-16.5455 z m -50.38656,-85.91803 3.79807,0 1.16861,-5.84316 c 2.07755,-10.06311 3.73311,-19.28236 4.96674,-27.65775 l 14.99748,2.14251 c -2.07764,11.42683 -4.09031,21.68485 -6.03796,30.77411 20.97043,-0.97375 41.32417,-3.50578 61.06127,-7.59614 l 1.85032,14.31577 c -20.45122,3.7008 -42.52544,6.03807 -66.22272,7.01182 -3.31122,14.08865 -8.1156,30.5794 -14.4132,49.47229 16.67623,-11.67704 35.75187,-25.19223 64.7513,-18.50152 28.99948,6.69075 49.27534,34.24404 38.49975,101.85811 l -15.68039,0.0249 c 11.6539,-49.34619 -2.02589,-79.88755 -25.78021,-86.97705 -28.47693,-6.51141 -50.86707,8.78365 -70.55521,26.09059 l -12.75759,-9.15433 c 8.56994,-20.97048 15.5493,-41.71374 20.93807,-62.22989 -18.82807,10e-5 -32.59198,-0.25978 -41.29182,-0.77909 l -0.66221,-14.49109 z"
       inkscape:connector-curvature="0" />
    <g
       transform="matrix(4.9861813,0,0,4.9861813,-1010.8217,-1018.4435)"
       id="g5510"
       style="fill:url(#linearGradient5528-9);fill-opacity:1">
      <path
         inkscape:connector-curvature="0"
         id="path4759"
         d="m 254.0625,250.78125 -0.21875,1.46875 c -0.23966,1.62711 -0.59453,3.43703 -1,5.40625 l -7.75,-0.28125 -1.65625,-0.0625 0.0937,1.625 0.125,2.90625 0.0625,1.34375 1.34375,0.0937 c 1.36354,0.0814 3.83132,0.10582 6.3125,0.125 -0.98391,3.45239 -2.09026,6.91143 -3.53125,10.4375 l -0.4375,1.09375 0.96875,0.71875 2.5625,1.8125 0.96875,0.71875 0.875,-0.8125 c 3.83744,-3.37331 7.76573,-5.99117 12.78125,-4.875 1.87234,0.57318 3.35661,1.9949 4.21875,4.5625 0.86851,2.58656 0.99753,6.30935 -0.125,11.0625 l -0.4375,1.84375 1.90625,0 3.15625,0 1.25,0 0.21875,-1.28125 c 1.10854,-6.95582 0.65212,-11.98737 -1,-15.625 -1.65212,-3.63763 -4.60213,-5.74488 -7.875,-6.5 -4.46753,-1.03074 -7.9244,0.23142 -10.78125,1.84375 0.54278,-1.79379 1.11691,-3.67454 1.5,-5.21875 4.37513,-0.22307 8.56637,-0.5864 12.40625,-1.28125 l 1.40625,-0.25 -0.1875,-1.4375 -0.375,-2.875 -0.21875,-1.59375 -1.5625,0.34375 c -3.2531,0.67418 -6.66356,0.97501 -10.09375,1.21875 0.26915,-1.33358 0.56366,-2.6158 0.84375,-4.15625 l 0.25,-1.53125 -1.53125,-0.21875 -3,-0.40625 -1.46875,-0.21875 z m -0.15625,14.4375 c -0.54383,1.945 -1.00719,3.74032 -1.78125,6.0625 L 251.21875,274 251,273.84375 c 1.1452,-2.89436 2.05863,-5.76776 2.90625,-8.625 z m 8.71875,3.96875 c 1.08931,-0.0861 2.28265,0.01 3.59375,0.3125 0.0479,0.0111 0.0775,0.0509 0.125,0.0625 0.77087,0.18825 1.40007,0.58259 2.0625,0.9375 1.464,0.78437 2.75035,1.85546 3.625,3.78125 0.23755,0.52302 0.41376,1.17652 0.59375,1.8125 0.33802,1.19436 0.53888,2.5955 0.625,4.21875 -0.1111,-1.49655 -0.21113,-2.98616 -0.625,-4.21875 -0.83247,-2.47924 -2.3197,-4.41882 -4.21875,-5.59375 -0.63302,-0.39164 -1.31324,-0.69196 -2.03125,-0.90625 l -0.0312,-0.0312 -0.0625,0 c -1.4952,-0.34188 -2.89594,-0.38789 -4.25,-0.25 0.20525,-0.029 0.38165,-0.10824 0.59375,-0.125 z m 10.25,17.25 c -0.0231,0.19534 -0.005,0.33174 -0.0312,0.53125 l -0.0312,0 c 0.0333,-0.1847 0.0328,-0.34905 0.0625,-0.53125 z"
         style="font-size:40px;font-style:normal;font-variant:normal;font-weight:normal;font-stretch:normal;text-indent:0;text-align:start;text-decoration:none;line-height:125%;letter-spacing:0px;word-spacing:0px;text-transform:none;direction:ltr;block-progression:tb;writing-mode:lr-tb;text-anchor:start;baseline-shift:baseline;color:#000000;fill:url(#linearGradient5805-2);fill-opacity:1;fill-rule:nonzero;stroke:none;stroke-width:3;marker:none;visibility:visible;display:inline;overflow:visible;enable-background:accumulate;font-family:FontAwesome;-inkscape-font-specification:FontAwesome" />
      <path
         inkscape:connector-curvature="0"
         id="path4761"
         d="m 259.88247,275.02053 c -1.69944,0.34047 -4.0061,1.52841 -5.75747,3.79197 l -0.8125,1.0625 0.9375,0.90625 1.34375,1.375 1.09375,1.125 1.0625,-1.125 c 0.87645,-0.9306 1.7031,-1.67071 2.40625,-2.03125 0.70315,-0.36054 1.22659,-0.46024 2.09375,-0.1875 0.63312,0.19913 1.10251,0.67478 1.40625,2.03125 0.30374,1.35647 0.26784,3.47653 -0.25,6.125 l -0.34375,1.8125 1.84375,-0.0312 1.8125,-0.0312 1.1875,0 0.25,-1.1875 c 0.69176,-3.22326 0.91668,-6.10418 0.34375,-8.53125 -0.57293,-2.42707 -1.79883,-4.1347 -3.59559,-4.82479 -1.79676,-0.69009 -3.87356,-0.5103 -5.02194,-0.27978 z"
         style="font-size:40px;font-style:normal;font-variant:normal;font-weight:normal;font-stretch:normal;text-indent:0;text-align:start;text-decoration:none;line-height:125%;letter-spacing:0px;word-spacing:0px;text-transform:none;direction:ltr;block-progression:tb;writing-mode:lr-tb;text-anchor:start;baseline-shift:baseline;color:#000000;fill:url(#linearGradient5807-5);fill-opacity:1;fill-rule:nonzero;stroke:none;stroke-width:3;marker:none;visibility:visible;display:inline;overflow:visible;enable-background:accumulate;font-family:FontAwesome;-inkscape-font-specification:FontAwesome"
         sodipodi:nodetypes="cccccccsssccccccszc" />
      <path
         inkscape:connector-curvature="0"
         id="path4763"
         d="m 259.73331,283.42166 c -0.27864,0.10433 -0.53964,0.27411 -0.75071,0.46963 -0.42213,0.39108 -0.70648,0.90296 -0.84,1.47839 -0.13355,0.57542 -0.0831,1.14421 0.1308,1.62152 0.2139,0.47734 0.63435,0.8844 1.23159,0.97403 0.59724,0.0896 1.19498,-0.18119 1.61711,-0.57221 0.42212,-0.39107 0.72646,-0.90723 0.85997,-1.48266 0.13355,-0.57541 0.085,-1.124 -0.12891,-1.60129 -0.21391,-0.47733 -0.63623,-0.90463 -1.23348,-0.99426 -0.29864,-0.0449 -0.60777,0.002 -0.88635,0.10703 z m 0.3739,2.04383 c 0.006,0.0664 0.0192,0.11882 -0.001,0.2064 -0.0175,0.0751 -0.06,0.0894 -0.0886,0.14263 -0.006,-0.0664 -0.0192,-0.11883 0.001,-0.2064 0.0174,-0.0751 0.06,-0.0894 0.0886,-0.14263 z"
         style="font-size:medium;font-style:normal;font-variant:normal;font-weight:normal;font-stretch:normal;text-indent:0;text-align:start;text-decoration:none;line-height:normal;letter-spacing:normal;word-spacing:normal;text-transform:none;direction:ltr;block-progression:tb;writing-mode:lr-tb;text-anchor:start;baseline-shift:baseline;color:#000000;fill:url(#linearGradient5809-3);fill-opacity:1;fill-rule:nonzero;stroke:none;stroke-width:3;marker:none;visibility:visible;display:inline;overflow:visible;enable-background:accumulate;font-family:Sans;-inkscape-font-specification:Sans" />
      <path
         sodipodi:nodetypes="ccccccccccccscssccccccc"
         inkscape:connector-curvature="0"
         id="path4767"
         d="m 279.875,258.375 c -3.45568,0.15768 -5.99163,0.50836 -7.8125,1.21875 -1.31022,0.51119 -2.39664,1.4804 -2.96875,2.71875 -0.006,0.0133 -0.0252,0.0179 -0.0312,0.0312 -0.67622,1.5084 -0.57723,3.26995 0.0937,4.9375 0.85509,2.1249 2.50807,3.67846 4.65625,4.28125 1.92946,0.53425 4.12161,0.36425 6.53125,-0.34375 l 1.0625,-0.3125 0.0312,-1.09375 0.0625,-2.59375 0.0312,-1.8125 -1.78125,0.28125 c -1.81668,0.29843 -3.20177,0.459 -4.0625,0.40625 -0.81596,-0.05 -0.93719,-0.20225 -1.03125,-0.34375 -0.34334,-0.65581 -0.42957,-1.12356 -0.40625,-1.21875 0.0244,-0.0996 -0.0556,-0.14186 0.53125,-0.28125 1.9086,-0.45332 2.30405,-0.58985 5.3125,-0.78125 l 1.4375,-0.0937 -0.0625,-1.46875 -0.0312,-2.0625 0.0247,-1.4714 -1.5872,0.003 z"
         style="font-size:14.82375813px;font-style:normal;font-variant:normal;font-weight:normal;font-stretch:normal;text-indent:0;text-align:start;text-decoration:none;line-height:125%;letter-spacing:0px;word-spacing:0px;text-transform:none;direction:ltr;block-progression:tb;writing-mode:lr-tb;text-anchor:start;baseline-shift:baseline;color:#000000;fill:url(#linearGradient5811-5);fill-opacity:1;fill-rule:nonzero;stroke:none;stroke-width:3;marker:none;visibility:visible;display:inline;overflow:visible;enable-background:accumulate;font-family:FontAwesome;-inkscape-font-specification:FontAwesome" />
      <path
         inkscape:connector-curvature="0"
         id="path4771"
         d="m 286.75,249.25 -1.59375,0.0625 -2.15625,0.125 -1.53125,0.0937 0.125,1.5 c 0.0472,0.66579 0.0235,6.51215 -0.0312,8.53125 -0.19724,0.0931 -0.20269,0.10211 -0.4375,0.21875 l -1.09375,0.53125 0.28125,1.1875 0.46875,1.71875 0.21875,0.875 c -0.0659,0.29255 -0.10818,0.51014 -0.1875,0.84375 -0.36454,1.53332 -0.85625,3.40759 -1.34375,4.65625 l -0.625,1.625 1.6875,0.375 2.46875,0.5625 1.28125,0.3125 0.4375,-1.21875 c 0.68649,-1.81827 1.25677,-3.99511 1.6875,-6.5 0.0828,-0.47681 0.0939,-0.67054 0.15625,-1 0.0982,1.173 -0.21534,2.60064 -0.28125,4.03125 l -0.0625,1.375 1.40625,0.1875 2.75,0.34375 1.5625,0.15625 0.125,-1.53125 c 0.1209,-1.48509 0.40302,-3.9648 -0.125,-6.59375 -0.2698,-1.34336 -0.69879,-2.32523 -1.40625,-3 -0.70746,-0.67477 -1.55574,-0.88063 -2.0625,-1 -0.62738,-0.14778 -1.07521,-0.0211 -1.5625,0.0625 -0.0118,-0.81129 -0.004,-1.39971 -0.0312,-2.46875 -0.0492,-1.90796 -0.12094,-3.88216 -0.125,-4.5 l 0,-1.5625 z"
         style="font-size:40px;font-style:normal;font-variant:normal;font-weight:normal;font-stretch:normal;text-indent:0;text-align:start;text-decoration:none;line-height:125%;letter-spacing:0px;word-spacing:0px;text-transform:none;direction:ltr;block-progression:tb;writing-mode:lr-tb;text-anchor:start;baseline-shift:baseline;color:#000000;fill:url(#linearGradient5813-2);fill-opacity:1;fill-rule:nonzero;stroke:none;stroke-width:3;marker:none;visibility:visible;display:inline;overflow:visible;enable-background:accumulate;font-family:FontAwesome;-inkscape-font-specification:FontAwesome" />
      <path
         inkscape:connector-curvature="0"
         id="path4775"
         d="m 290.1875,257.75 0,1.5 c 0,2.12124 0.13,3.90996 0.375,5.375 0.002,0.0106 -0.002,0.0206 0,0.0312 0.27576,1.6232 0.75699,2.99215 1.6875,4 0.63544,0.70543 1.50208,1.28125 2.53125,1.28125 0.5525,0 1.28737,-0.0502 2.0625,-0.4375 0.77513,-0.38732 1.47089,-1.11263 1.96875,-2.09375 0.41766,-0.82316 0.65779,-1.37098 0.78125,-1.78125 0.0617,-0.20513 0.10354,-0.37617 0.125,-0.53125 0.0215,-0.15508 0,-0.4375 0,-0.4375 l -0.0625,-0.59375 -0.4375,-0.40625 -1.65625,-1.4375 -1.8125,-1.59375 -0.40625,1.5 c -0.004,-0.07 -0.0282,-0.13715 -0.0312,-0.21875 -0.0184,-0.49152 0.0242,-1.28075 0.0312,-2.65625 l 0,-1.5 -1.5,0 -2.15625,0 -1.5,0 z"
         style="font-size:40px;font-style:normal;font-variant:normal;font-weight:normal;font-stretch:normal;text-indent:0;text-align:start;text-decoration:none;line-height:125%;letter-spacing:0px;word-spacing:0px;text-transform:none;direction:ltr;block-progression:tb;writing-mode:lr-tb;text-anchor:start;baseline-shift:baseline;color:#000000;fill:url(#linearGradient5815-1);fill-opacity:1;fill-rule:nonzero;stroke:none;stroke-width:3;marker:none;visibility:visible;display:inline;overflow:visible;enable-background:accumulate;font-family:FontAwesome;-inkscape-font-specification:FontAwesome" />
      <path
         inkscape:connector-curvature="0"
         id="path4777"
         d="m 291.75,251.53125 0.40625,3.28125 c -0.5195,0.0962 -1.07324,0.23697 -1.40625,0.59375 -0.44313,0.47476 -0.63327,1.01964 -0.6875,1.53125 -0.10846,1.02323 0.17136,2.21574 1.46875,2.78125 0.8254,0.35977 1.80622,0.31461 2.59375,-0.125 0.78753,-0.43961 1.34827,-1.22025 1.625,-2.15625 0.63026,-2.13181 -1.15625,-3.65625 -1.15625,-3.65625 l -2.84375,-2.25 z"
         style="font-size:medium;font-style:normal;font-variant:normal;font-weight:normal;font-stretch:normal;text-indent:0;text-align:start;text-decoration:none;line-height:normal;letter-spacing:normal;word-spacing:normal;text-transform:none;direction:ltr;block-progression:tb;writing-mode:lr-tb;text-anchor:start;baseline-shift:baseline;color:#000000;fill:url(#linearGradient5817-5);fill-opacity:1;fill-rule:nonzero;stroke:none;stroke-width:3;marker:none;visibility:visible;display:inline;overflow:visible;enable-background:accumulate;font-family:Sans;-inkscape-font-specification:Sans" />
      <path
         inkscape:connector-curvature="0"
         id="path4781"
         d="m 275.03125,274.4375 0,1.5 0,12.53125 0,1.5 1.5,0 4.15625,0 0.1875,0 1.3125,0 0.1875,0 3.84375,0 1.5,0 0,-1.5 0,-3.3125 c 0,-0.52411 -0.009,-0.95428 -0.0312,-1.3125 -0.0207,-0.337 -0.032,-0.57742 -0.15625,-0.96875 -0.008,-0.0246 0.009,-0.0364 0,-0.0625 l -0.0312,0 c -0.11224,-0.33501 -0.34145,-0.51518 -0.53125,-0.75 0.59785,-0.79305 0.74999,-1.70316 0.75,-2.71875 -10e-6,-1.28342 -0.25392,-2.46052 -1.09375,-3.34375 -0.68522,-0.73928 -1.62144,-1.21175 -2.625,-1.375 -0.94633,-0.15539 -2.32707,-0.18749 -4.40625,-0.1875 l -3.0625,0 -1.5,0 z m 3,3 1.5625,0 c 0.66324,0 0.76226,0.0486 1.28125,0.0625 l 0,0.59375 -1.5,0 0,2.78125 0,0.4375 0,1.0625 0,0.4375 0,4.15625 -1.34375,0 0,-9.53125 z m 5.15625,0.15625 c 0.0511,0.006 0.27268,-0.007 0.3125,0 0.455,0.074 0.71454,0.22819 0.9375,0.46875 0.0821,0.0863 0.28124,0.42961 0.28125,1.28125 -10e-6,0.80883 -0.2435,1.12514 -0.0625,0.9375 0.15123,-0.15677 -0.15134,0.10074 -0.9375,0.15625 l -0.15625,2.75 c -0.0558,-0.32505 -0.11673,-0.65646 -0.5,-1.09375 -0.009,-0.0103 0.009,-0.0208 0,-0.0312 -0.12587,-0.14152 -0.21887,-0.13529 -0.34375,-0.21875 0.39742,-0.30546 0.71458,-0.67857 0.8125,-1 0.11832,-0.38841 0.15624,-0.72745 0.15625,-1.09375 l 0,-0.6875 c -10e-6,-0.4452 -0.17743,-0.99207 -0.5,-1.46875 z m 0.4375,5.8125 c 0.6601,0.14158 1.06008,0.39236 0.9375,0.28125 0.18275,0.16566 0.15056,0.24983 0.0937,0.0625 l 0.0312,0.0312 c -0.0747,-0.21881 -0.0159,-0.008 0,0.25 0.0159,0.25806 0.0312,0.63832 0.0312,1.125 l 0,1.8125 -1.03125,0 0,-2.65625 c 0,-0.32189 -0.0248,-0.62256 -0.0625,-0.90625 z"
         style="font-size:18.2988205px;font-style:normal;font-variant:normal;font-weight:bold;font-stretch:normal;text-indent:0;text-align:start;text-decoration:none;line-height:125%;letter-spacing:-0.05775131px;word-spacing:0px;text-transform:none;direction:ltr;block-progression:tb;writing-mode:lr-tb;text-anchor:start;baseline-shift:baseline;color:#000000;fill:url(#linearGradient5819-1);fill-opacity:1;fill-rule:nonzero;stroke:none;stroke-width:3;marker:none;visibility:visible;display:inline;overflow:visible;enable-background:accumulate;font-family:Impact;-inkscape-font-specification:Impact Bold" />
      <path
         inkscape:connector-curvature="0"
         id="path4783"
         d="m 292.1875,274.1875 c -1.15444,10e-6 -2.1889,0.11315 -3.125,0.4375 -0.92221,0.31305 -1.74621,0.80199 -2.3125,1.5625 l 0,0.0312 c -0.62663,0.85948 -0.78125,1.84098 -0.78125,2.96875 0,0.83593 0.15348,1.63154 0.53125,2.34375 l 0,0.0312 c 0.19832,0.36291 0.52712,0.61005 0.8125,0.90625 l -1.1875,0 0,1.5 0,0.8125 c 0,1.0742 0.11288,2.00468 0.53125,2.84375 0.4835,0.96969 1.3575,1.58981 2.375,2 l 0.0312,0 c 1.05097,0.42014 2.22658,0.59375 3.53125,0.59375 1.19339,0 2.28581,-0.14622 3.28125,-0.5 0.95896,-0.34701 1.79199,-0.82121 2.34375,-1.65625 0.006,-0.008 -0.005,-0.0229 0,-0.0312 0.5382,-0.82162 0.6875,-1.74154 0.6875,-2.78125 0,-1.43201 -0.2814,-2.69502 -1.15625,-3.65625 -0.18374,-0.20187 -0.4677,-0.35441 -0.6875,-0.53125 l 0,-1.34375 1.5,0 0,-0.46875 c -1e-5,-1.11534 -0.0867,-2.04093 -0.625,-2.90625 -0.004,-0.007 0.004,-0.0246 0,-0.0312 l -0.0312,0 c -0.54263,-0.86243 -1.38488,-1.32783 -2.34375,-1.65625 -0.99918,-0.34515 -2.12555,-0.46874 -3.375,-0.46875 z m -1.6875,3.21875 c -0.26122,0.4574 -0.4375,0.91637 -0.4375,1.34375 0,0.5895 0.0937,1.2292 0.5,1.8125 0.005,0.007 -0.005,0.024 0,0.0312 0.55975,0.79557 1.10005,0.92008 1.84375,1.25 1.86862,0.83244 3.00616,1.61943 3.125,1.75 0.12963,0.14243 0.375,0.63344 0.375,1.65625 0,0.73408 -0.14438,1.13845 -0.15625,1.15625 l -0.0312,0 c 0.001,-0.002 -0.21407,0.24089 -0.84375,0.46875 -0.14043,0.0499 -0.37353,0.0539 -0.53125,0.0937 0.26251,-0.4566 0.43749,-0.93563 0.4375,-1.375 -10e-6,-0.91937 -0.0574,-1.84945 -0.9375,-2.59375 -0.16998,-0.14015 -0.49577,-0.28501 -0.6875,-0.40625 l 0,-0.125 -0.25,0 c -0.4155,-0.2433 -0.73849,-0.48412 -1.40625,-0.8125 -1.05749,-0.52508 -1.75313,-0.93514 -1.9375,-1.0625 -0.13939,-0.0963 -0.2978,-0.21311 -0.4375,-0.46875 l 0.0312,0 c -0.0763,-0.14387 -0.1875,-0.44287 -0.1875,-0.9375 0,-0.79067 0.19864,-1.19117 0.21875,-1.21875 0.10204,-0.12721 0.32987,-0.32556 0.84375,-0.5 0.11362,-0.0394 0.33661,-0.0299 0.46875,-0.0625 z m 3.71875,0.0312 c 0.10188,0.0277 0.28368,0.031 0.375,0.0625 0.62276,0.2133 0.81352,0.45921 0.78125,0.40625 l 0,0.0312 c -0.007,-0.0103 0.0217,0.2439 0.0312,0.28125 l -0.90625,0 c -0.005,-0.22551 -0.12908,-0.50173 -0.28125,-0.78125 z m -5,8.03125 0.9375,0 0,0.0312 c 0,0.45087 0.0244,0.85923 0.28125,1.375 -0.0742,-0.025 -0.21244,-0.004 -0.28125,-0.0312 -0.61998,-0.24993 -0.78686,-0.47982 -0.8125,-0.53125 -0.05,-0.10039 -0.0785,-0.54723 -0.125,-0.84375 z"
         style="font-size:18.2988205px;font-style:normal;font-variant:normal;font-weight:bold;font-stretch:normal;text-indent:0;text-align:start;text-decoration:none;line-height:125%;letter-spacing:-0.05775131px;word-spacing:0px;text-transform:none;direction:ltr;block-progression:tb;writing-mode:lr-tb;text-anchor:start;baseline-shift:baseline;color:#000000;fill:url(#linearGradient5821-5);fill-opacity:1;fill-rule:nonzero;stroke:none;stroke-width:3;marker:none;visibility:visible;display:inline;overflow:visible;enable-background:accumulate;font-family:Impact;-inkscape-font-specification:Impact Bold" />
      <path
         inkscape:connector-curvature="0"
         id="path4785"
         d="m 303.0625,274.1875 c -1.15444,10e-6 -2.1889,0.11315 -3.125,0.4375 -0.92222,0.31305 -1.74621,0.80202 -2.3125,1.5625 l 0,0.0312 c -0.62661,0.85948 -0.78125,1.84098 -0.78125,2.96875 0,0.83591 -0.23715,1.44402 0.14063,2.15625 l 0.40622,0.43745 c 0.19832,0.3629 0.5115,0.39131 0.79688,0.6875 l -1.1875,0 0,1.5 0,0.8125 c 0,1.07421 0.11289,2.00469 0.53125,2.84375 0.4835,0.96977 1.35751,1.58981 2.375,2 l 0.0312,0 c 1.05097,0.42014 2.22657,0.59375 3.53125,0.59375 1.19339,0 2.28581,-0.14623 3.28125,-0.5 0.95896,-0.34701 1.792,-0.82124 2.34375,-1.65625 0.006,-0.008 -0.005,-0.0229 0,-0.0312 0.5382,-0.82163 0.68749,-1.74156 0.6875,-2.78125 -1e-5,-1.432 -0.28139,-2.69501 -1.15625,-3.65625 -0.19301,-0.21205 -0.48578,-0.37776 -0.71875,-0.5625 l 1.49155,0.002 0.008,-1.31478 0,-0.46875 c -1e-5,-1.11121 -0.061,-2.04385 -0.59375,-2.90625 -0.008,-0.0133 -0.023,-0.0182 -0.0312,-0.0312 -0.54262,-0.86239 -1.38487,-1.32783 -2.34375,-1.65625 -0.99918,-0.34515 -2.12555,-0.46874 -3.375,-0.46875 z m -1.6875,3.21875 c -0.26212,0.45795 -0.46876,0.91573 -0.46875,1.34375 -10e-6,0.58962 0.12486,1.22916 0.53125,1.8125 0.005,0.007 -0.005,0.024 0,0.0312 0.55244,0.78518 1.08413,0.92966 1.8125,1.25 0.01,0.004 0.0215,-0.004 0.0312,0 1.8439,0.82555 3.00706,1.62042 3.125,1.75 0.12962,0.14242 0.37499,0.63343 0.375,1.65625 -1e-5,0.7341 -0.14439,1.13846 -0.15625,1.15625 l -0.0312,0 c 10e-4,-0.002 -0.21408,0.24089 -0.84375,0.46875 -0.14043,0.0499 -0.37352,0.0539 -0.53125,0.0937 0.26249,-0.45658 0.4375,-0.93558 0.4375,-1.375 0,-0.9194 -0.0575,-1.84946 -0.9375,-2.59375 -0.16998,-0.14015 -0.49577,-0.28501 -0.6875,-0.40625 l 0,-0.125 -0.25,0 c -0.4155,-0.2433 -0.73849,-0.48412 -1.40625,-0.8125 -1.0575,-0.52508 -1.7532,-0.93518 -1.9375,-1.0625 -0.13939,-0.0963 -0.29778,-0.21309 -0.4375,-0.46875 l 0.0312,0 c -0.0763,-0.14385 -0.1875,-0.44285 -0.1875,-0.9375 0,-0.79067 0.19864,-1.19117 0.21875,-1.21875 0.10206,-0.12723 0.32987,-0.32556 0.84375,-0.5 0.11362,-0.0394 0.33661,-0.0299 0.46875,-0.0625 z m 3.71875,0.0312 c 0.10188,0.0277 0.28368,0.031 0.375,0.0625 0.62276,0.2133 0.8135,0.45916 0.78125,0.40625 l 0,0.0312 c -0.007,-0.0103 0.0216,0.24361 0.0312,0.28125 l -0.90625,0 c -0.005,-0.22551 -0.1291,-0.50174 -0.28125,-0.78125 z m -5,8.03125 0.9375,0 0,0.0312 c -10e-6,0.4509 0.0244,0.85924 0.28125,1.375 -0.0742,-0.025 -0.21243,-0.004 -0.28125,-0.0312 -0.61997,-0.24993 -0.7869,-0.4799 -0.8125,-0.53125 -0.0501,-0.10039 -0.0785,-0.54723 -0.125,-0.84375 z"
         style="font-size:18.2988205px;font-style:normal;font-variant:normal;font-weight:bold;font-stretch:normal;text-indent:0;text-align:start;text-decoration:none;line-height:125%;letter-spacing:-0.05775131px;word-spacing:0px;text-transform:none;direction:ltr;block-progression:tb;writing-mode:lr-tb;text-anchor:start;baseline-shift:baseline;color:#000000;fill:url(#linearGradient6188);fill-opacity:1;fill-rule:nonzero;stroke:none;stroke-width:3;marker:none;visibility:visible;display:inline;overflow:visible;enable-background:accumulate;font-family:Impact;-inkscape-font-specification:Impact Bold"
         sodipodi:nodetypes="ccccscccccscccsccccccccsccccccccccccccccsccccccccscccccccccccccccccccc" />
    </g>
    <g
       transform="matrix(4.9861813,0,0,4.9861813,-1010.8217,-1018.4435)"
       id="g5379"
       style="fill:url(#linearGradient5405-6);fill-opacity:1">
      <path
         inkscape:connector-curvature="0"
         d="m 280.65625,259.09375 -0.75,0.0312 c -3.41733,0.15593 -5.92882,0.50669 -7.59375,1.15625 -1.17975,0.46029 -2.07645,1.26565 -2.5625,2.34375 -0.59563,1.30756 -0.52767,2.83063 0.0937,4.375 0.78513,1.95105 2.24092,3.29753 4.1875,3.84375 1.74724,0.4838 3.77242,0.3383 6.09375,-0.34375 l 0.53125,-0.15625 0.0312,-0.53125 0.0625,-2.625 0,-0.90625 -0.875,0.15625 c -1.83396,0.30127 -3.27052,0.43503 -4.25,0.375 -0.95718,-0.0587 -1.36923,-0.23806 -1.625,-0.625 -0.007,-0.0128 0.007,-0.0186 0,-0.0312 -0.42726,-0.78462 -0.56014,-1.43939 -0.46875,-1.8125 0.0929,-0.37914 0.29702,-0.63069 1.0625,-0.8125 1.89838,-0.45089 2.40492,-0.61956 5.4375,-0.8125 l 0.71875,-0.0625 -0.0312,-0.71875 -0.0312,-2.09375 -0.0312,-0.75 z m -1.46875,1.59375 0.0312,0.625 c -2.22198,0.17689 -3.32753,0.36019 -4.96875,0.75 -1.12268,0.26664 -1.95768,0.96803 -2.1875,1.90625 -0.22982,0.93822 0.0731,1.94246 0.625,2.9375 l 0,0.0312 c 0.57035,0.90937 1.62676,1.30042 2.84375,1.375 0.97658,0.0598 2.30493,-0.10893 3.6875,-0.3125 l -0.0312,1.15625 c -1.88743,0.48397 -3.49216,0.56704 -4.75,0.21875 -1.5434,-0.43308 -2.57354,-1.33415 -3.21875,-2.9375 -0.51394,-1.27727 -0.50056,-2.29446 -0.0937,-3.1875 0.32383,-0.71828 0.85931,-1.21499 1.75,-1.5625 1.23067,-0.48013 3.42965,-0.82398 6.3125,-1 z"
         style="font-size:14.82375813px;font-style:normal;font-variant:normal;font-weight:normal;font-stretch:normal;text-indent:0;text-align:start;text-decoration:none;line-height:125%;letter-spacing:0px;word-spacing:0px;text-transform:none;direction:ltr;block-progression:tb;writing-mode:lr-tb;text-anchor:start;baseline-shift:baseline;color:#000000;fill:url(#linearGradient6190);fill-opacity:1;stroke:none;stroke-width:1.5;marker:none;visibility:visible;display:inline;overflow:visible;enable-background:accumulate;font-family:FontAwesome;-inkscape-font-specification:FontAwesome"
         id="path5133" />
      <path
         inkscape:connector-curvature="0"
         id="path4819"
         d="m 254.6875,251.625 -0.125,0.75 c -0.24488,1.66251 -0.55448,3.49336 -0.96875,5.5 l -0.125,0.5625 -0.125,0 -0.0312,0 -8.25,-0.3125 -0.8125,-0.0312 0.0312,0.8125 0.125,2.90625 0.0312,0.6875 0.6875,0.0312 c 1.55641,0.0929 4.18838,0.11377 7.28125,0.125 -1.03636,3.78796 -2.2931,7.59787 -3.875,11.46875 l -0.21875,0.5625 0.5,0.34375 2.5625,1.84375 0.46875,0.34375 0.4375,-0.40625 c 3.88539,-3.41546 8.08991,-6.25414 13.4375,-5.0625 2.13701,0.63779 3.85238,2.29617 4.78125,5.0625 0.92887,2.76633 1.02058,6.64928 -0.125,11.5 l -0.21875,0.90625 0.96875,0 3.125,0 0.65625,0 0.0937,-0.625 c 1.09454,-6.86798 0.62529,-11.80906 -0.9375,-15.25 -1.56279,-3.44094 -4.25332,-5.31823 -7.34375,-6.03125 -5.10939,-1.17883 -8.80192,0.65327 -11.84375,2.65625 0.85967,-2.70482 1.63119,-5.29509 2.15625,-7.46875 4.55602,-0.21043 8.87739,-0.62601 12.84375,-1.34375 l 0.6875,-0.125 -0.0937,-0.71875 -0.375,-2.875 -0.0937,-0.78125 -0.78125,0.15625 c -3.60579,0.74727 -7.37031,1.15147 -11.1875,1.375 0.33084,-1.59226 0.68288,-3.24028 1.03125,-5.15625 l 0.125,-0.75 -0.75,-0.125 -3.03125,-0.4375 -0.71875,-0.0937 z m 1.25,1.6875 1.5,0.21875 c -0.35985,1.94316 -0.72326,3.79186 -1.0625,5.375 l -0.1875,0.96875 0.96875,-0.0625 c 3.97499,-0.18458 7.80239,-0.69873 11.5625,-1.4375 l 0.1875,1.375 c -3.88403,0.67033 -8.02337,1.12855 -12.5,1.3125 l -0.5625,0.0312 -0.125,0.5625 c -0.65693,2.79514 -1.61721,6.07035 -2.875,9.84375 L 252.125,273.65625 254,272.375 c 3.34709,-2.3437 6.84483,-4.86966 12.375,-3.59375 2.72554,0.62884 4.95962,2.13994 6.34375,5.1875 1.33364,2.93639 1.76256,7.44632 0.84375,13.75 l -1.59375,0 c 0.94959,-4.58582 0.91548,-8.46241 -0.0625,-11.375 -1.0496,-3.12588 -3.12298,-5.24721 -5.75,-6.03125 l -0.0312,0 0,-0.0312 c -5.81799,-1.33032 -10.44046,1.67301 -14.34375,5.03125 L 250.125,274.125 c 1.62062,-4.03176 2.99272,-8.04609 4.03125,-12 l 0.25,-0.9375 -0.96875,0 c -3.45516,2e-5 -5.83352,-0.0701 -7.5625,-0.15625 l -0.0625,-1.375 7.46875,0.28125 0.0312,0 0.78125,0 0.59375,0 0.125,-0.59375 0.25,-1.1875 c 0.36496,-1.76776 0.63829,-3.32861 0.875,-4.84375 z"
         style="font-size:40px;font-style:normal;font-variant:normal;font-weight:normal;font-stretch:normal;text-indent:0;text-align:start;text-decoration:none;line-height:125%;letter-spacing:0px;word-spacing:0px;text-transform:none;direction:ltr;block-progression:tb;writing-mode:lr-tb;text-anchor:start;baseline-shift:baseline;color:#000000;fill:url(#linearGradient6192);fill-opacity:1;stroke:none;stroke-width:1.5;marker:none;visibility:visible;display:inline;overflow:visible;enable-background:accumulate;font-family:FontAwesome;-inkscape-font-specification:FontAwesome" />
      <path
         sodipodi:nodetypes="zccccccsssccccccszzcccscccsscccc"
         inkscape:connector-curvature="0"
         id="path4821"
         d="m 260.21876,275.65625 c -1.71924,0.36596 -3.70827,1.30926 -5.50001,3.625 l -0.40625,0.53125 0.46875,0.46875 1.34375,1.34375 0.5625,0.5625 0.53125,-0.5625 c 0.89697,-0.95238 1.75422,-1.72578 2.59375,-2.15625 0.83953,-0.43047 1.64509,-0.54661 2.6875,-0.21875 0.92539,0.29106 1.53559,1.04675 1.875,2.5625 0.33941,1.51575 0.31171,3.72446 -0.21875,6.4375 l -0.1875,0.90625 0.9375,-0.0312 1.78125,-0.0312 0.59375,0 0.125,-0.59375 c 0.67851,-3.16155 0.87415,-5.94057 0.34375,-8.1875 -0.5304,-2.24693 -1.60695,-3.50833 -2.88756,-4.16096 -1.28062,-0.65263 -2.92445,-0.86134 -4.64368,-0.49539 z m 0.81249,1.3125 c 0.69822,-0.0747 1.44533,-0.008 2.21875,0.1875 0.01,0.003 0.0218,-0.003 0.0312,0 1.67006,0.50481 2.59239,1.64088 3.03125,3.5 0.41371,1.7526 0.25704,4.17282 -0.28125,6.9375 l -0.2812,0.0312 c 0.39391,-2.41176 0.45674,-4.50392 0.0937,-6.125 -0.41074,-1.83431 -1.39633,-3.21259 -2.90625,-3.6875 -1.3929,-0.43811 -2.70023,-0.25782 -3.8125,0.3125 -0.89006,0.45638 -1.64758,1.20962 -2.40625,1.96875 l -0.375,-0.375 c 1.2446,-1.43259 2.80599,-2.5486 4.6875,-2.75 z"
         style="font-size:40px;font-style:normal;font-variant:normal;font-weight:normal;font-stretch:normal;text-indent:0;text-align:start;text-decoration:none;line-height:125%;letter-spacing:0px;word-spacing:0px;text-transform:none;direction:ltr;block-progression:tb;writing-mode:lr-tb;text-anchor:start;baseline-shift:baseline;color:#000000;fill:url(#linearGradient6194);fill-opacity:1;stroke:none;stroke-width:1.5;marker:none;visibility:visible;display:inline;overflow:visible;enable-background:accumulate;font-family:FontAwesome;-inkscape-font-specification:FontAwesome" />
      <path
         inkscape:connector-curvature="0"
         id="path4823"
         d="m 260.50322,283.81388 c -0.43377,-0.0651 -0.89544,0.12259 -1.22328,0.42627 -0.32783,0.3037 -0.55311,0.72006 -0.66288,1.19311 -0.10979,0.47308 -0.0867,0.92894 0.0806,1.30236 0.16732,0.37343 0.48991,0.66543 0.92368,0.73052 0.43379,0.0651 0.87543,-0.11852 1.20331,-0.422 0.32783,-0.30371 0.5731,-0.72433 0.68287,-1.19741 0.10979,-0.47306 0.0667,-0.92466 -0.10066,-1.29808 -0.16733,-0.37341 -0.46993,-0.66967 -0.90372,-0.73477 z m -0.25473,0.98225 c 0.10687,0.0161 0.2137,0.0821 0.28792,0.24777 0.0743,0.16561 0.10452,0.40302 0.0422,0.6714 -0.0623,0.26834 -0.20938,0.50216 -0.3486,0.63115 -0.13922,0.12896 -0.24701,0.15344 -0.35386,0.13745 -0.10688,-0.0161 -0.21371,-0.0821 -0.28793,-0.24778 -0.0743,-0.16562 -0.10452,-0.40302 -0.0422,-0.67138 0.0623,-0.26836 0.20937,-0.50218 0.3486,-0.63116 0.13922,-0.12895 0.24702,-0.15344 0.35387,-0.13746 z"
         style="font-size:medium;font-style:normal;font-variant:normal;font-weight:normal;font-stretch:normal;text-indent:0;text-align:start;text-decoration:none;line-height:normal;letter-spacing:normal;word-spacing:normal;text-transform:none;direction:ltr;block-progression:tb;writing-mode:lr-tb;text-anchor:start;baseline-shift:baseline;color:#000000;fill:url(#linearGradient6196);fill-opacity:1;stroke:none;stroke-width:1.5;marker:none;visibility:visible;display:inline;overflow:visible;enable-background:accumulate;font-family:Sans;-inkscape-font-specification:Sans" />
      <path
         inkscape:connector-curvature="0"
         id="path4831"
         d="m 286,250.03125 -0.78125,0.0312 -2.1875,0.125 -0.75,0.0312 0.0312,0.78125 c 0.0644,0.90929 0.0712,7.32456 0,9.0625 -0.2328,0.10634 -0.42281,0.18164 -0.875,0.40625 l -0.53125,0.25 0.15625,0.59375 0.4375,1.71875 0.21875,0.90625 0.125,-0.0625 c -0.0863,0.3915 -0.16534,0.73121 -0.28125,1.21875 -0.36815,1.54847 -0.89136,3.46241 -1.40625,4.78125 l -0.3125,0.8125 0.84375,0.1875 2.46875,0.5625 0.65625,0.15625 0.21875,-0.625 c 0.66369,-1.75787 1.20017,-3.87314 1.625,-6.34375 0.19248,-1.10894 0.27498,-1.58352 0.34375,-2.21875 0.0185,-0.006 0.0795,-0.0267 0.0937,-0.0312 0.0854,-0.0276 0.0969,-0.0323 0.25,-0.0625 0.51398,-0.10132 0.71871,-0.0772 0.6875,-0.0937 -0.0312,-0.0166 0.15018,0.13921 0.3125,0.9375 0.30142,1.48234 -0.24826,3.26199 -0.3125,4.65625 L 287,268.5 l 0.6875,0.0937 2.78125,0.34375 0.78125,0.0937 0.0625,-0.78125 c 0.12275,-1.50774 0.40523,-3.89067 -0.0937,-6.375 -0.25238,-1.25661 -0.66118,-2.0932 -1.21875,-2.625 -0.55757,-0.5318 -1.19438,-0.69634 -1.6875,-0.8125 -0.69149,-0.16288 -1.37241,-0.0437 -1.9375,0.0937 -0.1057,0.0257 -0.11915,0.0346 -0.21875,0.0625 0.003,-0.86292 0.006,-1.81372 -0.0312,-3.25 -0.0491,-1.9058 -0.12072,-3.88003 -0.125,-4.53125 l 0,-0.78125 z m -1.46875,1.5625 c 0.0177,0.90975 0.0531,2.20548 0.0937,3.78125 0.049,1.90148 0.0536,3.85276 0.0312,4.1875 l -0.0625,1.0625 1.03125,-0.28125 c 0.29316,-0.0818 0.66581,-0.23204 1.125,-0.34375 0.45919,-0.11171 0.95127,-0.15676 1.21875,-0.0937 0.46586,0.10973 0.74222,0.19163 1,0.4375 0.25778,0.24587 0.56372,0.72939 0.78125,1.8125 0.37821,1.88304 0.24702,3.70677 0.125,5.1875 l -1.25,-0.15625 c 0.15899,-1.09169 0.52895,-2.66452 0.1875,-4.34375 -0.192,-0.94423 -0.46484,-1.60356 -1.09375,-1.9375 -0.62891,-0.33394 -1.19024,-0.16053 -1.6875,-0.0625 -0.18592,0.0366 -0.3054,0.0924 -0.40625,0.125 -0.10085,0.0326 -0.17756,0.045 -0.46875,0.125 l -0.53125,0.15625 -0.0312,0.53125 c -0.0388,0.75076 -0.16061,1.17859 -0.40625,2.59375 -0.37054,2.15488 -0.86978,3.89758 -1.40625,5.4375 l -0.96875,-0.21875 c 0.45736,-1.33037 0.87383,-2.83689 1.1875,-4.15625 0.18768,-0.7894 0.36234,-1.46989 0.46875,-1.96875 0.0392,-0.18393 0.068,-0.31394 0.0937,-0.4375 l 0.0937,-0.0312 -0.0312,-0.28125 c 0.003,-0.0151 5.4e-4,-0.0336 0,-0.0312 l 0,-0.1875 c 0,-1.9e-4 -0.15622,-0.43746 -0.15625,-0.4375 -2e-5,-2e-5 -0.33062,0.0335 -0.65625,0.0625 l -0.15625,-0.5625 c 0.28227,-0.13188 0.6875,-0.34375 0.6875,-0.34375 l 0.4375,-0.1875 0,-0.46875 c 0.0901,-1.45518 0.10324,-6.8993 0.0312,-8.90625 l 0.71875,-0.0625 z"
         style="font-size:40px;font-style:normal;font-variant:normal;font-weight:normal;font-stretch:normal;text-indent:0;text-align:start;text-decoration:none;line-height:125%;letter-spacing:0px;word-spacing:0px;text-transform:none;direction:ltr;block-progression:tb;writing-mode:lr-tb;text-anchor:start;baseline-shift:baseline;color:#000000;fill:url(#linearGradient6198);fill-opacity:1;stroke:none;stroke-width:1.5;marker:none;visibility:visible;display:inline;overflow:visible;enable-background:accumulate;font-family:FontAwesome;-inkscape-font-specification:FontAwesome" />
      <path
         inkscape:connector-curvature="0"
         id="path4835"
         d="m 290.9375,258.5 0,0.75 c 0,2.10623 0.10633,3.87383 0.34375,5.28125 0.25997,1.5504 0.73885,2.76673 1.53125,3.625 0.55386,0.61486 1.22266,1.03125 1.96875,1.03125 0.50891,0 1.12978,-0.0651 1.75,-0.375 0.62022,-0.30991 1.18128,-0.87556 1.625,-1.75 0.4036,-0.79546 0.61331,-1.30588 0.71875,-1.65625 0.0527,-0.17519 0.0788,-0.29824 0.0937,-0.40625 0.0149,-0.10801 0,-0.28125 0,-0.28125 l -0.0312,-0.28125 -0.21875,-0.1875 -1.65625,-1.46875 -0.90625,-0.78125 -0.3125,1.15625 c -0.19641,0.73823 -0.34761,1.20965 -0.46875,1.4375 -0.0407,0.0766 -0.0426,0.0636 -0.0625,0.0937 -0.0268,-0.0379 -0.0335,-0.0432 -0.0625,-0.0937 -0.17374,-0.30326 -0.33711,-0.78297 -0.4375,-1.1875 -0.15577,-0.6278 -0.23003,-0.96617 -0.25,-1.5 -0.02,-0.53383 0.0243,-1.28691 0.0312,-2.65625 l 0,-0.75 -0.75,0 -2.15625,0 -0.75,0 z m 1.5625,1.5 0.59375,0 c -0.008,0.76628 -0.048,1.52089 -0.0312,1.96875 0.0231,0.61845 0.11327,1.10426 0.28125,1.78125 0.12938,0.52132 0.34434,1.10385 0.625,1.59375 0.14033,0.24495 0.29313,0.45761 0.53125,0.65625 0.23812,0.19864 0.64409,0.40175 1.0625,0.28125 0.46542,-0.13403 0.88415,-0.51572 1.125,-0.96875 0.0887,-0.16691 0.14616,-0.45873 0.21875,-0.65625 l 0.46875,0.4375 c -0.0801,0.24591 -0.22107,0.60833 -0.5625,1.28125 -0.33546,0.66108 -0.65837,0.93866 -0.96875,1.09375 -0.31038,0.15509 -0.64076,0.21875 -1.0625,0.21875 -0.17993,0 -0.45305,-0.12876 -0.84375,-0.5625 l -0.0312,0 c -0.50404,-0.54593 -0.89419,-1.46721 -1.125,-2.84375 C 292.5972,263.1902 292.52862,261.65 292.5,260 z"
         style="font-size:40px;font-style:normal;font-variant:normal;font-weight:normal;font-stretch:normal;text-indent:0;text-align:start;text-decoration:none;line-height:125%;letter-spacing:0px;word-spacing:0px;text-transform:none;direction:ltr;block-progression:tb;writing-mode:lr-tb;text-anchor:start;baseline-shift:baseline;color:#000000;fill:url(#linearGradient6200);fill-opacity:1;stroke:none;stroke-width:1.5;marker:none;visibility:visible;display:inline;overflow:visible;enable-background:accumulate;font-family:FontAwesome;-inkscape-font-specification:FontAwesome" />
      <path
         inkscape:connector-curvature="0"
         id="path4837"
         d="m 292.71875,253.21875 0.21875,1.8125 c 0,0 0.005,0.1592 -0.0312,0.25 -0.0359,0.0908 0.0797,0.10735 -0.3125,0.0937 -0.50309,-0.0174 -1.0085,0.20556 -1.3125,0.53125 -0.304,0.32569 -0.42807,0.71002 -0.46875,1.09375 -0.0813,0.76747 0.14677,1.65934 1,2.03125 0.61723,0.26904 1.34334,0.23791 1.9375,-0.0937 0.59416,-0.33166 1.05,-0.93657 1.28125,-1.71875 0.50091,-1.69427 -0.90625,-2.875 -0.90625,-2.875 l -1.40625,-1.125 z m 0.84375,3.375 c -0.008,0.0745 0.0556,0.10504 0.0312,0.1875 -0.1403,0.47455 -0.35508,0.72797 -0.5625,0.84375 -0.20742,0.11578 -0.4241,0.11881 -0.625,0.0312 0.0351,0.0153 -0.12088,-0.24405 -0.0937,-0.5 0.0136,-0.12797 0.0368,-0.1912 0.0625,-0.21875 0.0257,-0.0276 0.0249,-0.067 0.15625,-0.0625 0.40124,0.0139 0.74012,-0.10689 1.03125,-0.28125 z"
         style="font-size:medium;font-style:normal;font-variant:normal;font-weight:normal;font-stretch:normal;text-indent:0;text-align:start;text-decoration:none;line-height:normal;letter-spacing:normal;word-spacing:normal;text-transform:none;direction:ltr;block-progression:tb;writing-mode:lr-tb;text-anchor:start;baseline-shift:baseline;color:#000000;fill:url(#linearGradient6202);fill-opacity:1;stroke:none;stroke-width:1.5;marker:none;visibility:visible;display:inline;overflow:visible;enable-background:accumulate;font-family:Sans;-inkscape-font-specification:Sans" />
      <path
         inkscape:connector-curvature="0"
         id="path4841"
         d="m 275.78125,275.1875 0,0.75 0,12.53125 0,0.75 0.75,0 4.34375,0 0.5625,0 0.1875,0 0.5625,0 4.03125,0 0.75,0 0,-0.75 0,-3.3125 c 0,-0.51475 -0.0108,-0.91682 -0.0312,-1.25 -0.0197,-0.32111 -0.0401,-0.55071 -0.125,-0.8125 -0.003,-0.008 0.003,-0.0229 0,-0.0312 l -0.0312,0 c -0.13645,-0.41314 -0.37791,-0.75353 -0.71875,-1.0625 -0.007,-0.006 -0.0246,0.006 -0.0312,0 0.0768,-0.0601 0.18059,-0.0843 0.25,-0.15625 0.57553,-0.59664 0.68749,-1.44237 0.6875,-2.5 -1e-5,-1.1642 -0.26974,-2.12933 -0.90625,-2.8125 -0.006,-0.007 -0.0248,0.007 -0.0312,0 -0.56767,-0.60273 -1.2995,-1.01689 -2.15625,-1.15625 -0.83437,-0.137 -2.21652,-0.18749 -4.28125,-0.1875 l -3.0625,0 -0.75,0 z m 1.5,1.5 2.3125,0 c 2.03581,10e-6 3.4208,0.056 4.03125,0.15625 0.59214,0.0963 1.00522,0.32226 1.34375,0.6875 0.27153,0.28556 0.49999,0.85292 0.5,1.8125 -10e-6,0.89177 -0.21008,1.39497 -0.28125,1.46875 -0.0861,0.0892 -0.53844,0.31372 -1.40625,0.375 l -0.0937,1.46875 c 0.80111,0.14892 1.29213,0.39364 1.375,0.46875 0.23929,0.21692 0.3065,0.38646 0.3125,0.40625 l 0.0312,0.0312 c -0.0184,-0.054 0.0139,0.1544 0.0312,0.4375 0.0174,0.2831 0.0312,0.66021 0.0312,1.15625 l 0,2.5625 -2.53125,0 0,-3.40625 c -1e-5,-0.36213 -0.0147,-0.69399 -0.0625,-0.96875 -0.0478,-0.27476 -0.0966,-0.50782 -0.34375,-0.78125 -0.24418,-0.2837 -0.51482,-0.34839 -0.78125,-0.40625 -0.26643,-0.0579 -0.54233,-0.0937 -0.875,-0.0937 l -0.75,0 0,0.75 0,4.90625 -2.84375,0 0,-11.03125 z m 3.59375,0.65625 0,0.75 -0.75,0 0,2.78125 0,0.75 0.75,0 c 0.53864,0 0.92282,-0.0359 1.34375,-0.25 0.34213,-0.17684 0.50965,-0.47393 0.59375,-0.75 0.0841,-0.27607 0.12499,-0.55389 0.125,-0.875 l 0,-0.6875 c -10e-6,-0.50886 -0.14765,-1.08223 -0.625,-1.40625 -0.009,-0.006 -0.022,0.006 -0.0312,0 -0.43585,-0.27916 -0.85412,-0.31249 -1.40625,-0.3125 z"
         style="font-size:18.2988205px;font-style:normal;font-variant:normal;font-weight:bold;font-stretch:normal;text-indent:0;text-align:start;text-decoration:none;line-height:125%;letter-spacing:-0.05775131px;word-spacing:0px;text-transform:none;direction:ltr;block-progression:tb;writing-mode:lr-tb;text-anchor:start;baseline-shift:baseline;color:#000000;fill:url(#linearGradient6204);fill-opacity:1;stroke:none;stroke-width:1.5;marker:none;visibility:visible;display:inline;overflow:visible;enable-background:accumulate;font-family:Impact;-inkscape-font-specification:Impact Bold" />
      <path
         sodipodi:nodetypes="cccscsccccssccsccsccccscccccccccccccccscccccscccsccsccscccccccccccsccccc"
         inkscape:connector-curvature="0"
         id="path4843"
         d="m 292.1875,274.9375 c -1.09323,10e-6 -2.04231,0.11773 -2.875,0.40625 -0.82575,0.2803 -1.48923,0.7105 -1.9375,1.3125 -0.475,0.65151 -0.65625,1.48775 -0.65625,2.53125 0,0.7506 0.13509,1.42987 0.4375,2 0.28103,0.51425 0.66836,0.96582 1.125,1.28125 0.26861,0.18555 0.8691,0.48347 1.375,0.75 l -2.03125,0 -0.75,0 0,0.75 0,0.8125 c 0,1.0064 0.10103,1.85643 0.4375,2.53125 0.36903,0.74013 1.08188,1.25488 2,1.625 l 0.0312,0 c 0.93828,0.3751 2.0163,0.53125 3.25,0.53125 1.12646,0 2.13448,-0.15004 3.03125,-0.46875 0.8823,-0.31927 1.58658,-0.7085 2,-1.34375 0.41717,-0.62544 0.53125,-1.43502 0.53125,-2.40625 0,-1.32971 -0.24895,-2.39972 -0.9375,-3.15625 -0.48831,-0.53648 -1.65745,-1.0786 -2.75,-1.625 1.11876,9.4e-4 2.23744,0.005 3.3561,-0.01 l -0.0123,-0.74025 0,-0.46875 c -10e-6,-1.06098 -0.12386,-1.88834 -0.53125,-2.53125 -0.39799,-0.65307 -1.08301,-1.04038 -1.96875,-1.34375 -0.8952,-0.30923 -1.93611,-0.43749 -3.125,-0.4375 z m 0,1.5 c 1.06777,10e-6 1.96903,0.10636 2.65625,0.34375 0.71042,0.24333 1.0451,0.53636 1.15625,0.71875 l 0.0312,0.0312 c 0.0967,0.15268 0.21096,0.7506 0.25,1.4375 l -2.53125,0 0,-0.15625 c -1e-5,-0.49273 0.0875,-0.88402 -0.3125,-1.34375 -0.2927,-0.33618 -0.72979,-0.43748 -1.09375,-0.4375 -0.41421,2e-5 -0.8654,0.16195 -1.15625,0.5 l -0.0312,0.0312 c -0.28839,0.35264 -0.34375,0.76204 -0.34375,1.1875 0,0.49769 0.0708,0.9791 0.34375,1.375 0.006,0.008 -0.006,0.0228 0,0.0312 l 0.0312,-0.0312 c 0.35621,0.50753 0.79407,0.71809 1.5,1.03125 1.90096,0.84685 3.0957,1.59632 3.40625,1.9375 0.31593,0.34713 0.5625,1.03114 0.5625,2.15625 0,0.81313 -0.13428,1.34216 -0.28125,1.5625 l -0.0312,0 c -0.137,0.21051 -0.50487,0.52292 -1.21875,0.78125 -0.69941,0.24857 -1.53865,0.375 -2.53125,0.375 -1.09176,0 -2.00583,-0.1525 -2.71875,-0.4375 -0.71936,-0.29 -1.07864,-0.62526 -1.21875,-0.90625 -0.17267,-0.3463 -0.28125,-0.97295 -0.28125,-1.84375 l 0,-0.0625 2.53125,0 0,0.78125 c 0,0.52791 -0.0389,0.90916 0.34375,1.375 l 0,0.0312 c 0.31807,0.36469 0.7825,0.43751 1.1875,0.4375 0.42275,1e-5 0.88668,-0.154 1.1875,-0.5 0.003,-0.003 -0.003,-0.0279 0,-0.0312 0.28574,-0.35128 0.40624,-0.78581 0.40625,-1.21875 -10e-6,-0.82842 -0.082,-1.54564 -0.65625,-2.03125 l -0.0312,0 c -0.42517,-0.35055 -1.06077,-0.68003 -2.15625,-1.21875 -1.06883,-0.53071 -1.79487,-0.94012 -2.0625,-1.125 -0.24514,-0.16933 -0.46944,-0.40815 -0.65625,-0.75 -0.15167,-0.28595 -0.25,-0.70129 -0.25,-1.28125 0,-0.87494 0.17201,-1.4207 0.34375,-1.65625 0.21221,-0.285 0.58592,-0.56643 1.21875,-0.78125 l 0.0312,0 c 0.62587,-0.21686 1.40419,-0.31249 2.375,-0.3125 z"
         style="font-size:18.2988205px;font-style:normal;font-variant:normal;font-weight:bold;font-stretch:normal;text-indent:0;text-align:start;text-decoration:none;line-height:125%;letter-spacing:-0.05775131px;word-spacing:0px;text-transform:none;direction:ltr;block-progression:tb;writing-mode:lr-tb;text-anchor:start;baseline-shift:baseline;color:#000000;fill:url(#linearGradient6206);fill-opacity:1;stroke:none;stroke-width:1.5;marker:none;visibility:visible;display:inline;overflow:visible;enable-background:accumulate;font-family:Impact;-inkscape-font-specification:Impact Bold" />
      <path
         sodipodi:nodetypes="ccccsccccccsccscccccccccccccccccccsccccccccccccccsccscccccccccscccccsccccc"
         inkscape:connector-curvature="0"
         id="path4845"
         d="m 303.0625,274.9375 c -1.09323,10e-6 -2.04231,0.11773 -2.875,0.40625 -0.82576,0.2803 -1.48923,0.71051 -1.9375,1.3125 l -0.0312,0 c -0.47498,0.6515 -0.625,1.48775 -0.625,2.53125 0,0.7506 0.13509,1.42986 0.4375,2 0.28104,0.51424 0.66836,0.96582 1.125,1.28125 0.26862,0.18557 0.8691,0.48347 1.375,0.75 l -2.03125,0 -0.75,0 0,0.75 0,0.8125 c 0,1.0064 0.10103,1.85644 0.4375,2.53125 0.36902,0.74016 1.08189,1.25488 2,1.625 0.93829,0.37509 2.04754,0.53125 3.28125,0.53125 1.12646,0 2.13448,-0.15004 3.03125,-0.46875 0.8728,-0.31583 1.55395,-0.72016 1.96875,-1.34375 0.005,-0.008 -0.005,-0.0235 0,-0.0312 0.40512,-0.6218 0.56249,-1.41574 0.5625,-2.375 -10e-6,-1.3297 -0.24895,-2.39971 -0.9375,-3.15625 -0.48831,-0.53648 -1.65745,-1.0786 -2.75,-1.625 l 2.5625,0 0.7513,0.001 c -10e-4,-0.40668 -10e-4,-0.81337 -10e-4,-1.22005 -1e-5,-1.06099 -0.0926,-1.88835 -0.5,-2.53125 -0.39799,-0.65305 -1.08301,-1.04038 -1.96875,-1.34375 -0.8952,-0.30923 -1.93611,-0.43749 -3.125,-0.4375 z m 0,1.5 c 1.06777,10e-6 1.96903,0.10636 2.65625,0.34375 0.71042,0.24333 1.04508,0.53634 1.15625,0.71875 l 0.0312,0.0312 c 0.0967,0.15258 0.17962,0.7514 0.21875,1.4375 l -2.5,0 0,-0.15625 c 0,-0.49275 0.0562,-0.88404 -0.34375,-1.34375 -0.2927,-0.33618 -0.69854,-0.43748 -1.0625,-0.4375 -0.41422,2e-5 -0.86541,0.16198 -1.15625,0.5 l -0.0312,0.0312 c -0.28835,0.35262 -0.37501,0.76201 -0.375,1.1875 -10e-6,0.49782 0.10196,0.97906 0.375,1.375 0.006,0.008 -0.006,0.0229 0,0.0312 l 0.0312,-0.0312 c 0.35621,0.50753 0.79406,0.71809 1.5,1.03125 1.90096,0.84685 3.0957,1.59632 3.40625,1.9375 0.31593,0.34712 0.56249,1.03113 0.5625,2.15625 -1e-5,0.81314 -0.13428,1.34216 -0.28125,1.5625 l -0.0312,0 c -0.13702,0.21053 -0.50487,0.52292 -1.21875,0.78125 -0.69943,0.24857 -1.53865,0.375 -2.53125,0.375 -1.09177,0 -2.00582,-0.15249 -2.71875,-0.4375 -0.71935,-0.29 -1.07867,-0.62529 -1.21875,-0.90625 -0.17267,-0.34631 -0.28125,-0.97295 -0.28125,-1.84375 l 0,-0.0625 2.53125,0 0,0.78125 c -10e-6,0.52792 -0.0701,0.90918 0.3125,1.375 l 0.0312,0 0,0.0312 c 0.31807,0.36469 0.7825,0.43751 1.1875,0.4375 0.42275,1e-5 0.88668,-0.154 1.1875,-0.5 0.003,-0.003 -0.003,-0.0279 0,-0.0312 0.28571,-0.35126 0.40625,-0.78578 0.40625,-1.21875 0,-0.82843 -0.0821,-1.54564 -0.65625,-2.03125 l -0.0312,0 c -0.42517,-0.35055 -1.06077,-0.68003 -2.15625,-1.21875 -1.06884,-0.53071 -1.79492,-0.94015 -2.0625,-1.125 -0.24514,-0.16933 -0.46943,-0.40814 -0.65625,-0.75 -0.15167,-0.28594 -0.25,-0.70129 -0.25,-1.28125 0,-0.87494 0.17201,-1.42069 0.34375,-1.65625 0.21223,-0.28501 0.58591,-0.56643 1.21875,-0.78125 l 0.0312,0 c 0.62587,-0.21686 1.40419,-0.31249 2.375,-0.3125 z"
         style="font-size:18.2988205px;font-style:normal;font-variant:normal;font-weight:bold;font-stretch:normal;text-indent:0;text-align:start;text-decoration:none;line-height:125%;letter-spacing:-0.05775131px;word-spacing:0px;text-transform:none;direction:ltr;block-progression:tb;writing-mode:lr-tb;text-anchor:start;baseline-shift:baseline;color:#000000;fill:url(#linearGradient6208);fill-opacity:1;stroke:none;stroke-width:1.5;marker:none;visibility:visible;display:inline;overflow:visible;enable-background:accumulate;font-family:Impact;-inkscape-font-specification:Impact Bold" />
    </g>
    <path
       inkscape:connector-curvature="0"
       id="path4875"
       style="font-size:18.2988205px;font-style:normal;font-variant:normal;font-weight:bold;font-stretch:normal;line-height:125%;letter-spacing:-0.05775131px;word-spacing:0px;fill:url(#linearGradient5779-4);fill-opacity:1;stroke:none;font-family:Impact;-inkscape-font-specification:Impact Bold"
       d="m 524.52597,376.33879 -20.12014,0 0,-4.62857 c 0,-2.15997 -0.25729,-3.5357 -0.77181,-4.12717 -0.51487,-0.59136 -1.37225,-0.88714 -2.57292,-0.88719 -1.30364,5e-5 -2.29848,0.3984 -2.98458,1.19579 -0.65184,0.79714 -0.97774,2.00574 -0.97769,3.6257 -5e-5,2.08293 0.37745,3.65153 1.13206,4.70576 0.72041,1.05433 2.76155,2.3272 6.12353,3.81862 9.63974,4.29434 15.71181,7.81723 18.21612,10.56861 2.50426,2.75152 3.75639,7.18723 3.75644,13.30732 -5e-5,4.44857 -0.7033,7.72718 -2.10976,9.83579 -1.37229,2.10855 -4.04808,3.88289 -8.0275,5.3229 -3.97947,1.41428 -8.61063,2.12147 -13.89364,2.12147 -5.79764,0 -10.75475,-0.82292 -14.87139,-2.46861 -4.08233,-1.64574 -6.75817,-3.74148 -8.0274,-6.28723 -1.26933,-2.54574 -1.90397,-6.15863 -1.90397,-10.83866 l 0,-4.08862 20.12008,0 0,7.59864 c -5e-5,2.34007 0.27424,3.84435 0.82337,4.5129 0.58314,0.66859 1.59513,1.00292 3.03599,1.00287 1.44081,5e-5 2.50426,-0.42433 3.19041,-1.27288 0.72035,-0.84854 1.0806,-2.10855 1.0806,-3.78002 0,-3.67711 -0.66899,-6.08145 -2.00684,-7.21291 -1.37224,-1.13141 -4.75133,-3.02143 -10.13725,-5.67004 -5.38598,-2.67428 -8.95374,-4.61575 -10.70324,-5.82435 -1.7496,-1.20856 -3.20756,-2.87997 -4.37398,-5.01431 -1.13206,-2.13428 -1.69809,-4.86003 -1.69809,-8.17724 0,-4.78284 0.80616,-8.28 2.4185,-10.49152 1.64668,-2.21137 4.28816,-3.93425 7.92458,-5.16862 3.63633,-1.25996 8.02741,-1.88997 13.17325,-1.89002 5.62605,5e-5 10.41164,0.68151 14.35676,2.04429 3.97937,1.36297 6.6037,3.0858 7.87308,5.16867 1.30354,2.0572 1.95538,5.56722 1.95543,10.53007 l 0,2.46856 m -54.21291,0 -20.12008,0 0,-4.62857 c -5e-5,-2.15997 -0.25729,-3.5357 -0.77187,-4.12717 -0.51487,-0.59136 -1.37224,-0.88714 -2.57291,-0.88719 -1.30359,5e-5 -2.29848,0.3984 -2.98453,1.19579 -0.6519,0.79714 -0.97774,2.00574 -0.97774,3.6257 0,2.08293 0.37745,3.65153 1.13211,4.70576 0.7204,1.05433 2.76155,2.3272 6.12348,3.81862 9.63973,4.29434 15.7118,7.81723 18.21611,10.56861 2.50426,2.75152 3.75644,7.18723 3.75644,13.30732 0,4.44857 -0.7033,7.72718 -2.10975,9.83579 -1.37225,2.10855 -4.04808,3.88289 -8.0275,5.3229 -3.97942,1.41428 -8.61064,2.12147 -13.89365,2.12147 -5.79758,0 -10.75474,-0.82292 -14.87133,-2.46861 -4.08239,-1.64574 -6.75812,-3.74148 -8.02746,-6.28723 -1.26933,-2.54574 -1.90392,-6.15863 -1.90392,-10.83866 l 0,-4.08862 20.12004,0 0,7.59864 c 0,2.34007 0.27424,3.84435 0.82337,4.5129 0.58313,0.66859 1.59513,1.00292 3.03598,1.00287 1.44081,5e-5 2.50426,-0.42433 3.19041,-1.27288 0.72041,-0.84854 1.08061,-2.10855 1.08066,-3.78002 -5e-5,-3.67711 -0.669,-6.08145 -2.00689,-7.21291 -1.37225,-1.13141 -4.75133,-3.02143 -10.13726,-5.67004 -5.38592,-2.67428 -8.95363,-4.61575 -10.70323,-5.82435 -1.7496,-1.20856 -3.20756,-2.87997 -4.37393,-5.01431 -1.13206,-2.13428 -1.69815,-4.86003 -1.69815,-8.17724 0,-4.78284 0.80617,-8.28 2.41855,-10.49152 1.64664,-2.21137 4.28817,-3.93425 7.92454,-5.16862 3.63632,-1.25996 8.0274,-1.88997 13.17324,-1.89002 5.62606,5e-5 10.41165,0.68151 14.35676,2.04429 3.97937,1.36297 6.60375,3.0858 7.87308,5.16867 1.30359,2.0572 1.95538,5.56722 1.95543,10.53007 l 0,2.46856 m -102.37757,-18.90012 15.33446,0 c 10.22301,5e-5 17.13551,0.29568 20.73757,0.88714 3.63633,0.59151 6.5866,2.10866 8.85077,4.55149 2.29844,2.4172 3.44765,6.28722 3.4477,11.61012 -5e-5,4.86003 -0.80622,8.12578 -2.4185,9.7972 -1.61238,1.67147 -4.78563,2.67434 -9.51976,3.00861 4.28811,0.79714 7.16978,1.86428 8.64494,3.20143 1.47511,1.33719 2.38419,2.57147 2.72729,3.70288 0.37745,1.10579 0.56613,4.17867 0.56613,9.21866 l 0,16.47015 -20.12004,0 0,-20.75164 c -5e-5,-3.34283 -0.36,-5.4129 -1.08065,-6.21004 -0.6861,-0.79714 -2.52142,-1.19568 -5.506,-1.19568 l 0,28.15736 -21.66381,0 z m 21.66391,10.68439 0,13.88581 c 2.43565,0 4.13375,-0.24432 5.09434,-0.73286 0.99484,-0.51423 1.49226,-2.1471 1.49231,-4.89863 l 0,-3.43283 c -5e-5,-1.98002 -0.48017,-3.27857 -1.44086,-3.89581 -0.92628,-0.61709 -2.64153,-0.92563 -5.14579,-0.92568 m 67.09845,-105.13259 c -1.85262,6.26629 -6.88023,8.48429 -10.95958,6.70622 -4.07934,-1.77813 -4.12103,-11.2046 2.20539,-10.98531 6.32642,0.21939 5.55944,-5.94652 5.55944,-5.94652 0,0 5.04736,3.95928 3.19475,10.22561 z m 15.80255,48.52682 c -3.88513,7.65638 -8.90267,8.46538 -13.54306,8.46538 -2.30866,0 -4.64044,-1.30707 -6.99532,-3.92133 -3.23214,-3.5008 -5.46002,-8.89973 -6.68357,-16.19686 -1.13127,-6.70602 -1.6969,-15.24211 -1.6969,-25.60813 1.96236,0 10.44131,0 10.68723,0 -0.0693,13.59408 -0.41186,15.03498 1.20242,21.5409 1.14567,4.61646 3.80794,10.5912 6.40051,9.84457 2.89238,-0.83294 4.0581,-3.45528 6.05407,-10.95753 l 8.26041,7.21131 c 0,0 0.19895,1.9653 -3.68579,9.62169 z m -78.31625,-27.92018 c 3.31521,-1.64673 6.3133,-2.98313 6.3133,-2.98313 0.44527,-7.18813 0.5601,-42.00399 0.1461,-47.84924 l 10.83332,-0.57196 c 0.0449,6.82702 1.16717,38.89854 0.83594,43.86363 1.92003,-0.53581 8.78365,-3.31601 13.56525,-2.18968 4.78165,1.12633 9.35024,2.48526 11.69329,14.15153 2.34316,11.66622 1.06201,23.11469 0.44078,30.74549 l -13.84717,-1.66758 c 0.27374,-5.94153 3.13087,-15.51799 1.36417,-24.20651 -1.7667,-8.68852 -4.32272,-8.00616 -9.36495,-7.01217 -1.69031,0.33308 -1.19254,0.35253 -4.21207,1.18248 -0.21142,4.09066 -0.9032,6.40784 -2.11075,13.36481 -2.08891,12.14798 -4.73114,22.45387 -7.92669,30.91771 l -12.31352,-2.81156 c 5.40791,-13.85171 10.11656,-38.23304 10.12025,-37.99111 0,0 -1.14747,0.50814 -3.33251,1.62809 z m -9.22603,-6.2409 c -16.84826,0.76877 -29.03444,2.62089 -36.55858,5.55635 -5.1618,2.01392 -8.7523,5.26022 -10.7714,9.73876 -2.49918,5.4863 -2.33344,11.7467 0.49712,18.7813 3.56597,8.86144 9.69927,14.51293 18.40011,16.95441 7.80342,2.16071 17.27228,1.60535 28.40647,-1.66608 l 0.33756,-13.02425 c -18.46113,3.03269 -29.08015,3.44949 -33.18892,-3.10156 -4.96947,-8.95952 -3.97413,-16.49897 5.44058,-18.73503 9.41465,-2.2361 12.4666,-3.17006 27.70786,-4.13972 l -0.27125,-10.36418 m -94.19435,129.18877 c -0.85787,3.6968 -3.73864,6.3657 -6.43437,5.96112 -2.69573,-0.40437 -4.1856,-3.72941 -3.32768,-7.42626 0.85793,-3.69681 3.73869,-6.36571 6.43442,-5.96108 2.69573,0.40438 4.1856,3.72931 3.32763,7.42622 z m 11.91109,-46.7108 c 19.61848,5.63493 22.857,28.58269 16.22269,59.49541 l -8.95588,0.1456 c 5.41584,-27.69928 1.29865,-45.34802 -10.84425,-49.16729 -12.14289,-3.81926 -20.96076,3.2132 -30.11025,12.92797 l -6.79123,-6.8558 c 9.19622,-11.88571 23.38165,-20.87724 40.47892,-16.54549 z m -50.38656,-85.91804 3.79807,0 1.16862,-5.84315 c 2.07754,-10.06311 3.7331,-19.28236 4.96673,-27.65775 l 14.99749,2.14251 c -2.07765,11.42683 -4.09032,21.68485 -6.03797,30.77411 20.97043,-0.97375 41.32417,-3.50578 61.06128,-7.59615 l 1.85032,14.31578 c -20.45122,3.70079 -42.52545,6.03807 -66.22272,7.01182 -3.31123,14.08865 -8.11561,30.5794 -14.41321,49.47229 16.67624,-11.67704 35.75187,-25.19223 64.7513,-18.50153 28.99948,6.69076 49.27534,34.24405 38.49975,101.85811 l -15.68039,0.0249 c 11.6539,-49.3462 -2.02589,-79.88755 -25.7802,-86.97706 -28.47693,-6.5114 -50.86708,8.78366 -70.55522,26.0906 l -12.75759,-9.15433 c 8.56995,-20.97049 15.54931,-41.71375 20.93807,-62.22989 -18.82807,1e-4 -32.59197,-0.25978 -41.29181,-0.77909 l -0.66222,-14.49109 z" />
  </g>
</svg>
