<?xml version="1.0" encoding="UTF-8" standalone="no"?>
<!-- Created with Inkscape (http://www.inkscape.org/) -->

<svg
   xmlns:dc="http://purl.org/dc/elements/1.1/"
   xmlns:cc="http://creativecommons.org/ns#"
   xmlns:rdf="http://www.w3.org/1999/02/22-rdf-syntax-ns#"
   xmlns:svg="http://www.w3.org/2000/svg"
   xmlns="http://www.w3.org/2000/svg"
   xmlns:sodipodi="http://sodipodi.sourceforge.net/DTD/sodipodi-0.dtd"
   xmlns:inkscape="http://www.inkscape.org/namespaces/inkscape"
   width="64"
   height="64"
   id="svg2"
   version="1.1"
   inkscape:version="0.48.4 r9939"
   sodipodi:docname="rss.svg"
   inkscape:export-filename="/home/joaolopes/tchirss/img/rss.png"
   inkscape:export-xdpi="28.705025"
   inkscape:export-ydpi="28.705025">
  <defs
     id="defs4">
    <clipPath
       clipPathUnits="userSpaceOnUse"
       id="clipPath3014">
      <rect
         style="opacity:0.95999995;fill:#000000;fill-opacity:1;fill-rule:nonzero;stroke:none"
         id="rect3016"
         width="56.442272"
         height="54.800777"
         x="6.5659914"
         y="8.820447" />
    </clipPath>
    <clipPath
       clipPathUnits="userSpaceOnUse"
       id="clipPath3018">
      <rect
         style="opacity:0.95999995;fill:#000000;fill-opacity:1;fill-rule:nonzero;stroke:none"
         id="rect3020"
         width="56.442272"
         height="54.800777"
         x="6.5659914"
         y="8.820447" />
    </clipPath>
  </defs>
  <sodipodi:namedview
     id="base"
     pagecolor="#ffffff"
     bordercolor="#666666"
     borderopacity="1.0"
     inkscape:pageopacity="0.0"
     inkscape:pageshadow="2"
     inkscape:zoom="5.6568542"
     inkscape:cx="22.297841"
     inkscape:cy="40.514497"
     inkscape:document-units="px"
     inkscape:current-layer="layer1"
     showgrid="false"
     inkscape:window-width="1309"
     inkscape:window-height="744"
     inkscape:window-x="57"
     inkscape:window-y="24"
     inkscape:window-maximized="1" />
  <metadata
     id="metadata7">
    <rdf:RDF>
      <cc:Work
         rdf:about="">
        <dc:format>image/svg+xml</dc:format>
        <dc:type
           rdf:resource="http://purl.org/dc/dcmitype/StillImage" />
        <dc:title />
      </cc:Work>
    </rdf:RDF>
  </metadata>
  <g
     inkscape:label="Layer 1"
     inkscape:groupmode="layer"
     id="layer1"
     transform="translate(0,-988.36217)">
    <g
       id="g4471"
       style="opacity:0.5">
      <path
         transform="matrix(0.66999186,0,0,0.66999186,9.3224971,996.38708)"
         d="m 22.854701,55.161163 a 8.207489,8.207489 0 1 1 -16.414978,0 8.207489,8.207489 0 1 1 16.414978,0 z"
         sodipodi:ry="8.207489"
         sodipodi:rx="8.207489"
         sodipodi:cy="55.161163"
         sodipodi:cx="14.647212"
         id="path2996"
         style="opacity:1;fill:#000000;fill-opacity:1;fill-rule:nonzero;stroke:none"
         sodipodi:type="arc" />
      <path
         inkscape:connector-curvature="0"
         clip-path="url(#clipPath3018)"
         id="path2998"
         transform="matrix(0.66999186,0,0,0.66999186,9.2378979,996.38708)"
         d="m 6.53125,26.9375 c -20.284947,0 -36.71875,16.314802 -36.71875,36.4375 0,20.122698 16.433803,36.4375 36.71875,36.4375 20.284947,0 36.75,-16.314802 36.75,-36.4375 0,-20.122698 -16.465053,-36.4375 -36.75,-36.4375 z m 0,8.9375 c 15.314074,0 27.71875,12.308416 27.71875,27.5 0,15.191584 -12.404676,27.5 -27.71875,27.5 -15.314074,0 -27.71875,-12.308416 -27.71875,-27.5 0,-15.191584 12.404676,-27.5 27.71875,-27.5 z"
         style="opacity:1;fill:#000000;fill-opacity:1;fill-rule:nonzero;stroke:none" />
      <path
         inkscape:connector-curvature="0"
         clip-path="url(#clipPath3014)"
         id="path3007"
         transform="matrix(0.66999186,0,0,0.66999186,9.2378979,996.38708)"
         d="m 6.53125,9.09375 c -30.226112,0 -54.71875,24.29685 -54.71875,54.28125 0,29.9843 24.492638,54.28125 54.71875,54.28125 30.226111,0 54.75,-24.29695 54.75,-54.28125 0,-29.9844 -24.523889,-54.28125 -54.75,-54.28125 z m 0,9.03125 c 25.197092,0 45.65625,20.2544 45.65625,45.25 0,24.9955 -20.459158,45.25 -45.65625,45.25 -25.197091,0 -45.625,-20.2545 -45.625,-45.25 0,-24.9956 20.427909,-45.25 45.625,-45.25 z"
         style="opacity:1;fill:#000000;fill-opacity:1;fill-rule:nonzero;stroke:none" />
      <path
         id="rect4441"
         d="m 1.375,989.48717 0,47.12503 c 0.00657,7.8291 3.7133166,14.75 14.75,14.75 l 47,0 -7.09375,-7.0938 -39.90625,0 c -3.956146,0.095 -7.65625,-2.3856 -7.65625,-7.6562 l 0,-40.03128 -7.09375,-7.09375 z"
         style="opacity:1;fill:#000000;fill-opacity:1;fill-rule:nonzero;stroke:none"
         inkscape:connector-curvature="0" />
      <path
         inkscape:connector-curvature="0"
         style="opacity:1;fill:#000000;fill-opacity:1;fill-rule:nonzero;stroke:none"
         d="m 63,1051.3622 0,-47.125 c -0.0066,-7.82915 -3.713317,-14.75003 -14.75,-14.75003 l -47,0 7.09375,7.09375 39.90625,0 c 3.956146,-0.095 7.65625,2.38564 7.65625,7.65628 l 0,40.0312 7.09375,7.0938 z"
         id="path4449" />
    </g>
  </g>
</svg>
